# This file uses centimeters as units for non-parametric coordinates.

mtllib chairBar.mtl
g default
v 7.407043 1.127575 -1.208740
v 8.156982 1.127575 -1.208740
v 8.156982 1.127575 -1.321411
v 7.407043 1.127575 -1.321411
v 7.407043 1.023010 -1.208740
v 8.156982 1.023010 -1.208740
v 8.156982 1.023010 -1.321411
v 7.407043 1.023010 -1.321411
v 7.407043 1.023010 -0.508545
v 8.156982 1.023010 -0.508545
v 8.156982 1.127575 -0.508545
v 7.407043 1.127575 -0.508545
v 8.081970 1.743660 -1.315735
v 8.156982 1.668678 -1.302734
v 8.081970 1.743660 -1.428406
v 8.156982 1.668678 -1.415405
v 7.407043 1.668678 -1.302734
v 7.481995 1.743660 -1.315735
v 7.481995 1.743660 -1.428406
v 7.407043 1.668678 -1.415405
v 7.441833 1.127575 -1.173950
v 8.122131 1.127575 -1.173950
v 7.441833 1.127575 -0.543335
v 8.122131 1.127575 -0.543335
v 7.459351 1.162628 -1.156433
v 7.441833 1.145103 -1.173950
v 8.122131 1.145103 -1.173950
v 8.104614 1.162628 -1.156433
v 7.459351 1.162628 -0.560852
v 7.441833 1.145103 -0.543335
v 8.104614 1.162628 -0.560852
v 8.122131 1.145103 -0.543335
v 7.866943 1.023010 -0.918701
v 7.866943 1.023010 -0.798523
v 7.697021 1.023010 -0.798523
v 7.697021 1.023010 -0.918701
v 7.866943 0.099594 -0.918701
v 7.866943 0.099594 -0.798523
v 7.697021 0.099594 -0.798523
v 7.697021 0.099594 -0.918701
v 7.866943 0.047924 -0.918701
v 7.866943 0.047924 -0.798523
v 7.697021 0.047924 -0.798523
v 7.697021 0.047924 -0.918701
v 8.034607 0.099594 -1.086365
v 8.034607 0.099594 -0.630920
v 8.034607 0.047924 -0.630920
v 8.034607 0.047924 -1.086365
v 7.529419 0.099594 -0.630920
v 7.529419 0.047924 -0.630920
v 7.529419 0.099594 -1.086365
v 7.529419 0.047924 -1.086365
vt 0.490978 0.903662
vt 0.478548 0.903662
vt 0.478548 0.903662
vt 0.490978 0.903662
vt 0.389506 0.860539
vt 0.389506 0.860539
vt 0.389506 0.866796
vt 0.389506 0.866796
vt 0.466745 0.860539
vt 0.479175 0.860539
vt 0.479175 0.866796
vt 0.466745 0.866796
vt 0.479175 0.860539
vt 0.479175 0.866796
vt 0.466745 0.860539
vt 0.466745 0.866796
vt 0.477111 0.899175
vt 0.477111 0.899175
vt 0.489542 0.899175
vt 0.489542 0.899175
vt 0.598618 0.551484
vt 0.598618 0.551484
vt 0.529057 0.551484
vt 0.529057 0.551484
vt 0.598618 0.552532
vt 0.529057 0.552532
vt 0.530990 0.553581
vt 0.596685 0.553581
vt 0.596685 0.553581
vt 0.598618 0.552532
vt 0.530990 0.553581
vt 0.529057 0.552532
vt 0.434755 0.876741
vt 0.421497 0.876741
vt 0.421497 0.876741
vt 0.434755 0.876741
vt 0.421497 0.935089
vt 0.434755 0.935089
vt 0.421497 0.935089
vt 0.434755 0.935089
vt 0.421497 0.879833
vt 0.434755 0.879833
vt 0.421497 0.879833
vt 0.434755 0.879833
vt 0.453247 0.879833
vt 0.403004 0.879833
vt 0.403004 0.876741
vt 0.453247 0.876741
vt 0.403004 0.879833
vt 0.403004 0.876741
vt 0.453247 0.879833
vt 0.453247 0.876741
vt 0.434755 0.860539
vt 0.434755 0.860539
vt 0.421497 0.860539
vt 0.421497 0.860539
vt 0.462906 0.866796
vt 0.393345 0.866796
vt 0.393345 0.866796
vt 0.462906 0.866796
vn -0.000000 1.000000 0.000000
vn -0.000000 1.000000 0.000000
vn -0.000000 1.000000 0.000000
vn -0.000000 1.000000 0.000000
vn 0.000000 0.000000 1.000000
vn 0.000000 0.000000 1.000000
vn 0.000000 0.000000 1.000000
vn 0.000000 0.000000 1.000000
vn 1.000000 0.000000 0.000000
vn 1.000000 0.000000 0.000000
vn 1.000000 0.000000 0.000000
vn 1.000000 0.000000 0.000000
vn 0.000000 0.000000 -1.000000
vn 0.000000 0.000000 -1.000000
vn 0.000000 -0.144032 -0.989573
vn 0.000000 -0.144032 -0.989573
vn -1.000000 0.000000 0.000000
vn -1.000000 0.000000 0.000000
vn -1.000000 0.000000 0.000000
vn -1.000000 0.000000 0.000000
vn 1.000000 0.000000 0.000000
vn 1.000000 0.000000 0.000000
vn 1.000000 0.000000 0.000000
vn 1.000000 0.000000 0.000000
vn -1.000000 0.000000 0.000000
vn -1.000000 0.000000 0.000000
vn -1.000000 0.000000 0.000000
vn -1.000000 0.000000 0.000000
vn -0.000000 0.171115 0.985251
vn -0.000000 0.171115 0.985251
vn -0.000000 0.171115 0.985251
vn -0.000000 0.171115 0.985251
vn 1.000000 0.000000 0.000000
vn 1.000000 0.000000 0.000000
vn 1.000000 0.000000 0.000000
vn 1.000000 0.000000 0.000000
vn 0.000000 -0.144032 -0.989573
vn 0.000000 -0.144032 -0.989573
vn 0.000000 -0.171115 -0.985251
vn 0.000000 -0.171115 -0.985251
vn -1.000000 0.000000 0.000000
vn -1.000000 0.000000 0.000000
vn -1.000000 0.000000 0.000000
vn -1.000000 0.000000 0.000000
vn 0.707105 0.707109 0.000000
vn 0.707105 0.707109 0.000000
vn 0.707105 0.707109 0.000000
vn 0.707105 0.707109 0.000000
vn -0.707105 0.707109 0.000000
vn -0.707105 0.707109 0.000000
vn -0.707105 0.707109 0.000000
vn -0.707105 0.707109 0.000000
vn -0.000000 1.000000 0.000000
vn -0.000000 1.000000 0.000000
vn -0.000000 1.000000 0.000000
vn -0.000000 1.000000 0.000000
vn -0.000000 1.000000 0.000000
vn -0.000000 1.000000 0.000000
vn -0.000000 1.000000 0.000000
vn -0.000000 1.000000 0.000000
vn -0.000000 1.000000 0.000000
vn -0.000000 1.000000 0.000000
vn -0.000000 1.000000 0.000000
vn -0.000000 1.000000 0.000000
vn -0.000000 1.000000 0.000000
vn -0.000000 1.000000 0.000000
vn -0.000000 1.000000 0.000000
vn -0.000000 1.000000 0.000000
vn -0.707106 0.707108 0.000000
vn -0.707106 0.707108 0.000000
vn -0.707106 0.707108 0.000000
vn -0.707106 0.707108 0.000000
vn -0.000000 0.707107 -0.707107
vn -0.000000 0.707107 -0.707107
vn -0.000000 0.707107 -0.707107
vn -0.000000 0.707107 -0.707107
vn 0.707106 0.707107 0.000000
vn 0.707106 0.707107 0.000000
vn 0.707106 0.707107 0.000000
vn 0.707106 0.707107 0.000000
vn -0.000000 0.707107 0.707107
vn -0.000000 0.707107 0.707107
vn -0.000000 0.707107 0.707107
vn -0.000000 0.707107 0.707107
vn -0.000000 1.000000 0.000000
vn -0.000000 1.000000 0.000000
vn -0.000000 1.000000 0.000000
vn -0.000000 1.000000 0.000000
vn 0.000000 0.000000 -1.000000
vn 0.000000 0.000000 -1.000000
vn 0.000000 0.000000 -1.000000
vn 0.000000 0.000000 -1.000000
vn -1.000000 0.000000 0.000000
vn -1.000000 0.000000 0.000000
vn -1.000000 0.000000 0.000000
vn -1.000000 0.000000 0.000000
vn 0.000000 0.000000 1.000000
vn 0.000000 0.000000 1.000000
vn 0.000000 0.000000 1.000000
vn 0.000000 0.000000 1.000000
vn 1.000000 0.000000 0.000000
vn 1.000000 0.000000 0.000000
vn 1.000000 0.000000 0.000000
vn 1.000000 0.000000 0.000000
vn 0.000000 -1.000000 0.000000
vn 0.000000 -1.000000 0.000000
vn 0.000000 -1.000000 0.000000
vn 0.000000 -1.000000 0.000000
vn 0.000000 -1.000000 0.000000
vn 0.000000 -1.000000 0.000000
vn 0.000000 -1.000000 0.000000
vn 0.000000 -1.000000 0.000000
vn 0.000000 -0.171115 -0.985251
vn 0.000000 -0.171115 -0.985251
vn 0.000000 -0.171117 -0.985251
vn 0.000000 -0.171117 -0.985251
vn -0.000000 0.171115 0.985251
vn -0.000000 0.171115 0.985251
vn -0.000000 0.171117 0.985251
vn -0.000000 0.171117 0.985251
vn 0.000000 -1.000000 0.000000
vn 0.000000 -1.000000 0.000000
vn 0.000000 -1.000000 0.000000
vn 0.000000 -1.000000 0.000000
vn 0.000000 -1.000000 0.000000
vn 0.000000 -1.000000 0.000000
vn 0.000000 -1.000000 0.000000
vn 0.000000 -1.000000 0.000000
vn 0.000000 -1.000000 0.000000
vn 0.000000 -1.000000 0.000000
vn 0.000000 -1.000000 0.000000
vn 0.000000 -1.000000 0.000000
vn 0.000000 -1.000000 0.000000
vn 0.000000 -1.000000 0.000000
vn 0.000000 -1.000000 0.000000
vn 0.000000 -1.000000 0.000000
vn 1.000000 0.000000 0.000000
vn 1.000000 0.000000 0.000000
vn 1.000000 0.000000 0.000000
vn 1.000000 0.000000 0.000000
vn 0.000000 0.000000 1.000000
vn 0.000000 0.000000 1.000000
vn 0.000000 0.000000 1.000000
vn 0.000000 0.000000 1.000000
vn -1.000000 0.000000 0.000000
vn -1.000000 0.000000 0.000000
vn -1.000000 0.000000 0.000000
vn -1.000000 0.000000 0.000000
vn 0.000000 0.000000 -1.000000
vn 0.000000 0.000000 -1.000000
vn 0.000000 0.000000 -1.000000
vn 0.000000 0.000000 -1.000000
vn 1.000000 0.000000 0.000000
vn 1.000000 0.000000 0.000000
vn 1.000000 0.000000 0.000000
vn 1.000000 0.000000 0.000000
vn 0.000000 0.000000 1.000000
vn 0.000000 0.000000 1.000000
vn 0.000000 0.000000 1.000000
vn 0.000000 0.000000 1.000000
vn -1.000000 0.000000 0.000000
vn -1.000000 0.000000 0.000000
vn -1.000000 0.000000 0.000000
vn -1.000000 0.000000 0.000000
vn 0.000000 0.000000 -1.000000
vn 0.000000 0.000000 -1.000000
vn 0.000000 0.000000 -1.000000
vn 0.000000 0.000000 -1.000000
vn -0.000000 1.000000 0.000000
vn -0.000000 1.000000 0.000000
vn -0.000000 1.000000 0.000000
vn -0.000000 1.000000 0.000000
vn 0.000000 -1.000000 0.000000
vn 0.000000 -1.000000 0.000000
vn 0.000000 -1.000000 0.000000
vn 0.000000 -1.000000 0.000000
vn -0.000000 1.000000 0.000000
vn -0.000000 1.000000 0.000000
vn -0.000000 1.000000 0.000000
vn -0.000000 1.000000 0.000000
vn 0.000000 -1.000000 0.000000
vn 0.000000 -1.000000 0.000000
vn 0.000000 -1.000000 0.000000
vn 0.000000 -1.000000 0.000000
vn -0.000000 1.000000 0.000000
vn -0.000000 1.000000 0.000000
vn -0.000000 1.000000 0.000000
vn -0.000000 1.000000 0.000000
vn 0.000000 -1.000000 0.000000
vn 0.000000 -1.000000 0.000000
vn 0.000000 -1.000000 0.000000
vn 0.000000 -1.000000 0.000000
vn -0.000000 1.000000 0.000000
vn -0.000000 1.000000 0.000000
vn -0.000000 1.000000 0.000000
vn -0.000000 1.000000 0.000000
vn 0.000000 -1.000000 0.000000
vn 0.000000 -1.000000 0.000000
vn 0.000000 -1.000000 0.000000
vn 0.000000 -1.000000 0.000000
s off
g chair_Vet:chair1
usemtl lambert2SG
f 19/1/1 18/2/2 13/3/3 15/4/4
f 9/5/5 10/6/6 11/7/7 12/8/8
f 6/9/9 7/10/10 3/11/11 2/12/12
f 7/10/13 8/13/14 4/14/15 3/11/16
f 8/13/17 5/15/18 1/16/19 4/14/20
f 2/12/21 11/7/22 10/6/23 6/9/24
f 5/15/25 9/5/26 12/8/27 1/16/28
f 1/16/29 2/12/30 14/17/31 17/18/32
f 2/12/33 3/11/34 16/19/35 14/17/36
f 3/11/37 4/14/38 20/20/39 16/19/40
f 4/14/41 1/16/42 17/18/43 20/20/44
f 13/3/45 14/17/46 16/19/47 15/4/48
f 17/18/49 18/2/50 19/1/51 20/20/52
f 2/12/53 1/16/54 21/60/55 22/57/56
f 1/16/57 12/8/58 23/59/59 21/60/60
f 12/8/61 11/7/62 24/58/63 23/59/64
f 22/57/65 24/58/66 11/7/67 2/12/68
f 26/25/69 30/26/70 29/27/71 25/28/72
f 26/25/73 25/28/74 28/29/75 27/30/76
f 28/29/77 31/31/78 32/32/79 27/30/80
f 29/27/81 30/26/82 32/32/83 31/31/84
f 29/27/85 31/31/86 28/29/87 25/28/88
f 22/22/89 21/21/90 26/25/91 27/30/92
f 21/21/93 23/23/94 30/26/95 26/25/96
f 23/23/97 24/24/98 32/32/99 30/26/100
f 32/32/101 24/24/102 22/22/103 27/30/104
f 7/10/105 6/9/106 5/15/107 8/13/108
f 41/33/109 42/34/110 43/35/111 44/36/112
f 16/19/113 20/20/114 19/1/115 15/4/116
f 17/18/117 14/17/118 13/3/119 18/2/120
f 6/9/121 10/6/122 34/56/123 33/53/124
f 10/6/125 9/5/126 35/55/127 34/56/128
f 9/5/129 5/15/130 36/54/131 35/55/132
f 5/15/133 6/9/134 33/53/135 36/54/136
f 33/38/137 34/37/138 38/41/139 37/42/140
f 34/37/141 35/39/142 39/43/143 38/41/144
f 35/39/145 36/40/146 40/44/147 39/43/148
f 36/40/149 33/38/150 37/42/151 40/44/152
f 45/45/153 46/46/154 47/47/155 48/48/156
f 46/46/157 49/49/158 50/50/159 47/47/160
f 49/49/161 51/51/162 52/52/163 50/50/164
f 51/51/165 45/45/166 48/48/167 52/52/168
f 37/42/169 38/41/170 46/46/171 45/45/172
f 42/34/173 41/33/174 48/48/175 47/47/176
f 38/41/177 39/43/178 49/49/179 46/46/180
f 43/35/181 42/34/182 47/47/183 50/50/184
f 39/43/185 40/44/186 51/51/187 49/49/188
f 44/36/189 43/35/190 50/50/191 52/52/192
f 40/44/193 37/42/194 45/45/195 51/51/196
f 41/33/197 44/36/198 52/52/199 48/48/200
