# This file uses centimeters as units for non-parametric coordinates.

g default
v 5.202599 0.777702 -1.913002
v 6.226678 0.777702 -1.913002
v 5.202599 2.951371 -1.913002
v 6.226678 2.951371 -1.913002
v 5.213778 2.951371 -2.731260
v 6.232085 2.951371 -2.731260
v 5.213778 0.777702 -2.731260
v 6.215502 0.777702 -2.731260
v 5.202599 2.294420 -1.913002
v 5.202599 2.344744 -1.913002
v 6.226678 2.344744 -1.913002
v 6.226678 2.294420 -1.913002
v 6.232085 2.326391 -2.731260
v 6.215502 2.312774 -2.731260
v 5.224823 2.326391 -2.731260
v 5.224823 2.312774 -2.731260
v 5.225244 2.951371 -2.765994
v 6.204035 2.951371 -2.765994
v 6.204456 2.333169 -2.770099
v 5.224823 2.333169 -2.770099
v 6.204456 2.305995 -2.770099
v 5.224823 2.305995 -2.770099
v 6.204035 0.777702 -2.765994
v 5.225244 0.777702 -2.765994
v 5.919453 0.777702 -1.913002
v 5.914985 0.777702 -2.731260
v 5.906140 0.777702 -2.806193
v 5.910566 2.305995 -2.810297
v 5.918298 2.312774 -2.731260
v 5.918298 2.326391 -2.731260
v 5.910566 2.333169 -2.810297
v 5.906140 2.951371 -2.806193
v 5.914985 2.951371 -2.731260
v 5.919453 2.951371 -1.913002
v 5.914985 2.344744 -1.913002
v 5.914985 2.294420 -1.913002
v 5.489341 0.777702 -1.913002
v 5.494257 0.777702 -2.731260
v 5.503985 0.777702 -2.806193
v 5.499120 2.305995 -2.810297
v 5.502213 2.312774 -2.731260
v 5.502213 2.326391 -2.731260
v 5.499120 2.333169 -2.810297
v 5.503985 2.951371 -2.806193
v 5.494257 2.951371 -2.731260
v 5.489341 2.951371 -1.913002
v 5.494257 2.344744 -1.913002
v 5.494257 2.294420 -1.913002
v 5.180087 2.951371 -2.672758
v 5.479436 2.951371 -2.672758
v 5.928461 2.951371 -2.672758
v 6.249192 2.951371 -2.672758
v 6.249192 2.327198 -2.672758
v 6.249192 2.311967 -2.672758
v 6.249192 0.777702 -2.672758
v 5.928461 0.777702 -2.672758
v 5.479436 0.777702 -2.672758
v 5.180087 0.777702 -2.672758
v 5.191357 2.311967 -2.672758
v 5.191357 2.327198 -2.672758
v 5.881542 2.951371 -2.725418
v 5.881542 2.951371 -2.718329
v 6.131894 2.951371 -2.718329
v 6.131894 2.951371 -2.725418
v 6.131894 0.777702 -2.718329
v 5.881542 0.777702 -2.718329
v 5.881542 0.777702 -2.725418
v 6.131894 0.777702 -2.725418
v 5.306177 2.311967 -2.718329
v 5.306177 2.327198 -2.718329
v 5.306584 2.326391 -2.725418
v 5.306584 2.312774 -2.725418
v 6.131894 2.327198 -2.718329
v 6.131894 2.311967 -2.718329
v 6.131894 2.312774 -2.725418
v 6.131894 2.326391 -2.725418
v 5.297382 2.951371 -2.718329
v 5.297382 2.951371 -2.725418
v 5.297382 0.777702 -2.718329
v 5.297382 0.777702 -2.725418
v 5.531046 0.777702 -2.718329
v 5.531046 0.777702 -2.725418
v 5.531046 2.951371 -2.725418
v 5.531046 2.951371 -2.718329
v 5.350946 2.299102 -2.795462
v 5.297619 2.299104 -2.787387
v 5.350476 1.323759 -2.784067
v 5.305120 1.323759 -2.777742
v 5.305122 2.723678 -2.777792
v 5.350479 2.723677 -2.784116
v 5.349807 2.343652 -2.787383
v 5.296478 2.343652 -2.779309
v 5.346762 2.298733 -2.815483
v 5.301099 2.298735 -2.816487
v 5.344647 1.323389 -2.804331
v 5.305888 1.323390 -2.805720
v 5.305723 2.723942 -2.805775
v 5.344480 2.723941 -2.804384
v 5.344420 2.343916 -2.807719
v 5.298757 2.343917 -2.808722
v 5.304113 1.599079 -2.787718
v 5.298192 2.285078 -2.794918
v 5.298622 2.284983 -2.812565
v 5.312934 1.558548 -2.800844
v 5.339473 1.558925 -2.785569
v 5.333553 2.285349 -2.792769
v 5.330913 2.285240 -2.802553
v 5.334171 1.558804 -2.794874
v 5.296950 2.350626 -2.788019
v 5.303069 2.580971 -2.786983
v 5.310310 2.618191 -2.800631
v 5.299181 2.350628 -2.804378
v 5.323736 2.350020 -2.786927
v 5.329855 2.607715 -2.785890
v 5.325933 2.607911 -2.796013
v 5.321452 2.350203 -2.797711
vt 0.458209 0.513943
vt 0.458124 0.514077
vt 0.621314 0.533711
vt 0.621364 0.533836
vt 0.504708 0.536446
vt 0.453804 0.825424
vt 0.453875 0.825875
vt 0.504541 0.536567
vt 0.579677 0.544533
vt 0.580487 0.544530
vt 0.580425 0.544548
vt 0.579700 0.544551
vt 0.451734 0.601469
vt 0.451657 0.607564
vt 0.473715 0.608042
vt 0.473824 0.601982
vt 0.585949 0.534541
vt 0.585107 0.534561
vt 0.585130 0.534683
vt 0.585885 0.534666
vt 0.585891 0.543394
vt 0.585133 0.541983
vt 0.558874 0.523793
vt 0.558880 0.523119
vt 0.453002 0.526537
vt 0.475168 0.527474
vt 0.558536 0.519187
vt 0.461445 0.512487
vt 0.487552 0.514488
vt 0.573070 0.521310
vt 0.405485 0.511682
vt 0.405465 0.511542
vt 0.449749 0.783060
vt 0.470566 0.782585
vt 0.456771 0.831063
vt 0.558450 0.527717
vt 0.485609 0.612686
vt 0.480987 0.827571
vt 0.398802 0.830398
vt 0.397980 0.828141
vt 0.579730 0.537208
vt 0.398646 0.610898
vt 0.461262 0.513969
vt 0.489316 0.515247
vt 0.580459 0.537202
vt 0.614719 0.535882
vt 0.398659 0.510423
vt 0.398644 0.606762
vt 0.504561 0.543481
vt 0.456694 0.826154
vt 0.405108 0.827061
vt 0.405089 0.827521
vt 0.424730 0.826401
vt 0.424747 0.826857
vt 0.421675 0.827339
vt 0.422633 0.832260
vt 0.423474 0.611754
vt 0.538270 0.523585
vt 0.538276 0.522910
vt 0.423498 0.607597
vt 0.424488 0.510789
vt 0.423412 0.512245
vt 0.426732 0.512510
vt 0.426709 0.512648
vt 0.421545 0.525208
vt 0.421517 0.600767
vt 0.421485 0.606910
vt 0.420232 0.783735
vt 0.573703 0.540884
vt 0.573666 0.543350
vt 0.503169 0.543060
vt 0.503110 0.541047
vt 0.606198 0.541203
vt 0.606127 0.543323
vt 0.577100 0.543240
vt 0.577142 0.540776
vt 0.400297 0.600273
vt 0.400293 0.524310
vt 0.400297 0.606450
vt 0.400307 0.784190
vt 0.421957 0.513310
vt 0.395011 0.512090
vt 0.461700 0.515109
vt 0.620928 0.543088
vt 0.586095 0.543696
vt 0.585265 0.543711
vt 0.483052 0.821586
vt 0.457170 0.822437
vt 0.420354 0.823648
vt 0.503366 0.534393
vt 0.579870 0.534516
vt 0.580673 0.534508
vt 0.573703 0.543589
vt 0.573789 0.540677
vt 0.503140 0.543309
vt 0.502899 0.540993
vt 0.606361 0.543972
vt 0.606219 0.540610
vt 0.576934 0.543907
vt 0.576987 0.540524
vt 0.520100 0.542854
vt 0.572778 0.542662
vt 0.572726 0.542509
vt 0.519912 0.542567
vt 0.577649 0.542154
vt 0.597142 0.542527
vt 0.597186 0.542302
vt 0.577630 0.542017
vt 0.572779 0.540763
vt 0.522892 0.541014
vt 0.572689 0.540756
vt 0.519773 0.541450
vt 0.595141 0.541072
vt 0.577718 0.540715
vt 0.598009 0.541448
vt 0.577662 0.540807
vt 0.404992 0.605230
vt 0.405923 0.545081
vt 0.409475 0.605449
vt 0.410021 0.544594
vt 0.406280 0.753386
vt 0.405685 0.611934
vt 0.408674 0.754941
vt 0.409095 0.612306
vt 0.538164 0.518981
vt 0.460484 0.608393
vt 0.538078 0.527511
vt 0.524514 0.525398
vt 0.485694 0.608642
vt 0.460424 0.612510
vt 0.573024 0.525888
vt 0.524534 0.523446
vt 0.573590 0.523942
vt 0.524560 0.520819
vt 0.524541 0.522771
vt 0.574418 0.523276
vt 0.502290 0.544065
vt 0.502454 0.544083
vt 0.502063 0.536958
vt 0.395425 0.824468
vt 0.614511 0.543598
vt 0.614561 0.543578
vt 0.397771 0.511077
vt 0.614356 0.533125
vt 0.396135 0.606893
vt 0.396137 0.609151
vt 0.398828 0.609553
vt 0.398827 0.607503
vt 0.474419 0.825182
vt 0.474311 0.824734
vt 0.481332 0.825321
vt 0.505985 0.545095
vt 0.480260 0.515084
vt 0.480389 0.514953
vt 0.621348 0.542768
vt 0.489605 0.516372
vt 0.487571 0.611070
vt 0.487619 0.608865
vt 0.485834 0.611372
vt 0.487301 0.609398
vn 0.000000 1.000000 0.000000
vn 0.000000 1.000000 0.000000
vn 0.000000 1.000000 0.000000
vn 0.000000 1.000000 0.000000
vn 0.000000 -1.000000 0.000000
vn 0.000000 -1.000000 0.000000
vn 0.000000 -1.000000 0.000000
vn 0.000000 -1.000000 0.000000
vn -0.998350 0.000000 -0.057416
vn -0.999494 -0.014118 -0.028501
vn -0.999490 -0.014025 -0.028691
vn -0.998350 0.000000 -0.057416
vn 0.000000 0.000000 1.000000
vn 0.000000 0.000000 1.000000
vn 0.000000 0.000000 1.000000
vn 0.000000 0.000000 1.000000
vn 1.000000 0.000000 0.000000
vn 1.000000 0.000000 0.000000
vn 1.000000 0.000000 0.000000
vn 1.000000 0.000000 0.000000
vn 0.000000 0.000000 -1.000000
vn 0.000000 0.000000 -1.000000
vn 0.000000 0.000000 -1.000000
vn 0.000000 0.000000 -1.000000
vn 0.000000 0.000000 1.000000
vn 0.000000 0.000000 1.000000
vn 0.057392 0.006852 -0.998328
vn 0.056831 0.006851 -0.998360
vn 0.134614 0.007106 -0.990873
vn 0.134614 0.007106 -0.990873
vn 1.000000 0.000000 0.000000
vn 1.000000 0.000000 0.000000
vn -0.999506 -0.014400 -0.027922
vn -0.999506 -0.014400 -0.027922
vn 0.000000 0.000000 1.000000
vn 0.000000 0.000000 1.000000
vn 1.000000 0.000000 0.000000
vn 1.000000 0.000000 0.000000
vn 0.056999 -0.002771 -0.998370
vn 0.057226 -0.002772 -0.998357
vn 0.134617 -0.002874 -0.990894
vn 0.134617 -0.002874 -0.990894
vn -0.988023 0.003220 -0.154276
vn -0.988023 0.003220 -0.154276
vn -0.988023 0.003220 -0.154276
vn -0.988023 0.003220 -0.154276
vn 0.000000 1.000000 0.000002
vn 0.000000 1.000000 0.000001
vn 0.000000 1.000000 -0.000004
vn 0.000000 1.000000 -0.000004
vn 0.797495 0.002262 -0.603322
vn 0.797495 0.002262 -0.603322
vn 0.797495 0.002262 -0.603322
vn 0.797495 0.002262 -0.603322
vn 0.007708 -0.993158 -0.116523
vn 0.002919 -0.995259 -0.097222
vn 0.002326 -0.995491 -0.094828
vn 0.007708 -0.993158 -0.116523
vn -0.987930 -0.007932 -0.154695
vn -0.987930 -0.007932 -0.154695
vn -0.987930 -0.007932 -0.154695
vn -0.987930 -0.007932 -0.154695
vn 0.002339 0.995532 -0.094401
vn 0.002940 0.995309 -0.096701
vn 0.007854 0.993278 -0.115483
vn 0.007854 0.993279 -0.115483
vn 0.956251 -0.000524 -0.292547
vn 0.956251 -0.000524 -0.292547
vn 0.956251 -0.000524 -0.292547
vn 0.956251 -0.000524 -0.292547
vn 0.000000 -1.000000 -0.000000
vn 0.000000 -1.000000 0.000001
vn 0.000000 -1.000000 0.000001
vn 0.000000 -1.000000 -0.000000
vn -0.999579 0.005861 -0.028410
vn -0.999579 0.005861 -0.028410
vn -0.999579 0.005861 -0.028410
vn -0.999579 0.005861 -0.028410
vn 0.000000 -1.000000 0.000000
vn 0.000000 -1.000000 0.000000
vn 0.000000 -1.000000 0.000001
vn 0.000000 -1.000000 0.000001
vn -0.020394 -0.002602 -0.999789
vn -0.030511 -0.003536 -0.999528
vn -0.002686 0.995502 -0.094699
vn -0.002677 0.995505 -0.094669
vn 0.000000 0.000000 -1.000000
vn 0.000000 0.000000 -1.000000
vn -0.002677 -0.995506 -0.094660
vn -0.002686 -0.995503 -0.094691
vn -0.034599 0.006993 -0.999377
vn -0.025183 0.006334 -0.999663
vn 0.000000 1.000000 0.000003
vn 0.000000 1.000000 0.000003
vn 0.000000 1.000000 0.000000
vn 0.000000 1.000000 0.000000
vn 0.000000 0.000000 1.000000
vn 0.000000 0.000000 1.000000
vn 0.000000 0.000000 1.000000
vn 0.000000 0.000000 1.000000
vn 0.000000 -1.000000 0.000000
vn 0.000000 -1.000000 0.000000
vn 0.000000 -1.000000 0.000000
vn 0.000000 -1.000000 0.000000
vn 0.028346 -0.011192 -0.999536
vn 0.028346 -0.011192 -0.999536
vn 0.028346 -0.011192 -0.999536
vn 0.028346 -0.011192 -0.999536
vn -0.008309 0.993442 -0.114038
vn -0.008309 0.993442 -0.114038
vn 0.000000 0.000000 -1.000000
vn 0.000000 0.000000 -1.000000
vn -0.008308 -0.993443 -0.114027
vn -0.008308 -0.993443 -0.114027
vn 0.028361 0.007998 -0.999566
vn 0.028361 0.007998 -0.999566
vn 0.028361 0.007998 -0.999566
vn 0.028361 0.007998 -0.999566
vn 0.000000 1.000000 0.000001
vn 0.000000 1.000000 0.000001
vn 0.000000 1.000000 0.000000
vn 0.000000 1.000000 0.000000
vn 0.000000 0.000000 1.000000
vn 0.000000 0.000000 1.000000
vn 0.000000 0.000000 1.000000
vn 0.000000 0.000000 1.000000
vn 0.000000 1.000000 -0.000000
vn 0.000000 1.000000 -0.000000
vn 0.000000 1.000000 -0.000000
vn 0.000000 1.000000 -0.000000
vn 0.000000 1.000000 0.000000
vn 0.000000 1.000000 0.000000
vn 0.000000 1.000000 0.000000
vn 0.000000 1.000000 0.000000
vn 0.999561 0.000000 0.029620
vn 0.999561 0.000000 0.029620
vn 0.999561 0.000000 0.029620
vn 0.999561 0.000000 0.029620
vn 0.999561 0.000000 0.029620
vn 0.999561 0.000000 0.029620
vn 0.999561 0.000000 0.029620
vn 0.999561 0.000000 0.029620
vn 0.000000 -1.000000 -0.000000
vn 0.000000 -1.000000 -0.000000
vn 0.000000 -1.000000 0.000000
vn 0.000000 -1.000000 0.000000
vn 0.000000 -1.000000 -0.000000
vn 0.000000 -1.000000 -0.000000
vn 0.000000 -1.000000 -0.000000
vn 0.000000 -1.000000 -0.000000
vn -0.999746 0.003693 0.022251
vn -0.999746 0.003693 0.022251
vn -0.999746 0.003693 0.022251
vn -0.999746 0.003693 0.022251
vn -0.999891 0.000000 0.014795
vn -0.999721 -0.008704 0.021943
vn -0.999722 -0.008678 0.021922
vn -0.999891 0.000000 0.014795
vn -0.999709 -0.009154 0.022313
vn -0.999709 -0.009154 0.022313
vn 0.000000 1.000000 -0.000005
vn 0.000000 1.000000 -0.000005
vn 0.000000 1.000000 -0.000005
vn 0.000000 1.000000 -0.000005
vn 0.000000 1.000000 0.000036
vn 0.000000 1.000000 0.000036
vn 0.000000 1.000000 0.000036
vn 0.000000 1.000000 0.000036
vn 0.000000 -1.000000 0.000001
vn 0.000000 -1.000000 0.000001
vn 0.000000 -1.000000 0.000001
vn 0.000000 -1.000000 0.000001
vn 0.000000 -1.000000 -0.000009
vn 0.000000 -1.000000 -0.000009
vn 0.000000 -1.000000 -0.000009
vn 0.000000 -1.000000 -0.000009
vn -0.368901 0.000000 -0.929469
vn -0.368901 0.000000 -0.929469
vn -0.368901 0.000000 -0.929469
vn -0.368901 0.000000 -0.929469
vn -0.071266 0.000000 0.997457
vn -0.071266 0.000000 0.997457
vn -0.071266 0.000000 0.997457
vn -0.071266 0.000000 0.997457
vn 0.362136 0.000000 -0.932125
vn 0.362136 0.000000 -0.932125
vn 0.362136 0.000000 -0.932125
vn 0.362136 0.000000 -0.932125
vn 0.063390 -0.038602 0.997242
vn 0.063390 -0.038602 0.997242
vn 0.063390 -0.038602 0.997242
vn 0.063390 -0.038602 0.997242
vn 0.362136 0.000000 -0.932125
vn 0.362136 0.000000 -0.932125
vn 0.362136 0.000000 -0.932125
vn 0.362136 0.000000 -0.932125
vn 0.058208 0.000000 0.998305
vn 0.058208 0.000000 0.998305
vn 0.058208 0.000000 0.998305
vn 0.058208 0.000000 0.998305
vn -0.365487 -0.005874 -0.930798
vn -0.365487 -0.005874 -0.930798
vn -0.365487 -0.005874 -0.930798
vn -0.365487 -0.005874 -0.930798
vn -0.070477 -0.001142 0.997513
vn -0.070477 -0.001142 0.997513
vn -0.070477 -0.001142 0.997513
vn -0.070477 -0.001142 0.997513
vn 0.362136 0.000000 -0.932126
vn 0.362136 0.000000 -0.932126
vn 0.362136 0.000000 -0.932126
vn 0.362136 0.000000 -0.932126
vn 0.069700 0.000000 0.997568
vn 0.069700 0.000000 0.997568
vn 0.069700 0.000000 0.997568
vn 0.069700 0.000000 0.997568
vn -0.365493 0.002390 -0.930811
vn -0.365493 0.002390 -0.930811
vn -0.365493 0.002390 -0.930811
vn -0.365493 0.002390 -0.930811
vn -0.070476 0.000465 0.997513
vn -0.070476 0.000465 0.997513
vn -0.070476 0.000465 0.997513
vn -0.070476 0.000465 0.997513
vn 0.000000 -1.000000 0.000002
vn 0.000000 -1.000000 0.000002
vn 0.000000 -1.000000 0.000002
vn 0.000000 -1.000000 0.000002
vn 0.000000 -1.000000 -0.000012
vn 0.000000 -1.000000 -0.000012
vn 0.000000 -1.000000 -0.000012
vn 0.000000 -1.000000 -0.000012
vn 0.000000 1.000000 -0.000001
vn 0.000000 1.000000 -0.000001
vn 0.000000 1.000000 -0.000001
vn 0.000000 1.000000 -0.000001
vn 0.000000 1.000000 -0.000046
vn 0.000000 1.000000 -0.000046
vn 0.000000 1.000000 -0.000046
vn 0.000000 1.000000 -0.000046
vn 0.000000 -1.000000 0.000005
vn 0.000000 -1.000000 0.000005
vn 0.000000 -1.000000 0.000005
vn 0.000000 -1.000000 0.000005
vn 0.000000 -1.000000 0.000001
vn 0.000000 -1.000000 0.000001
vn 0.000000 -1.000000 0.000001
vn 0.000000 -1.000000 0.000001
vn 0.000000 1.000000 0.000000
vn 0.000000 1.000000 0.000000
vn 0.000000 1.000000 0.000000
vn 0.000000 1.000000 0.000000
vn 0.000000 1.000000 -0.000035
vn 0.000000 1.000000 -0.000035
vn 0.000000 1.000000 -0.000035
vn 0.000000 1.000000 -0.000035
vn -0.104463 0.697434 -0.708995
vn -0.104463 0.697434 -0.708995
vn -0.104463 0.697434 -0.708995
vn -0.104463 0.697434 -0.708995
vn -0.134973 -0.004925 -0.990837
vn -0.132809 -0.006368 -0.991121
vn -0.144577 -0.000760 -0.989493
vn -0.158146 -0.003958 -0.987408
vn -0.166546 -0.005942 -0.986016
vn -0.166546 -0.005942 -0.986016
vn -0.138912 0.001993 -0.990303
vn -0.149555 0.005932 -0.988736
vn -0.133521 0.004305 -0.991037
vn -0.152666 0.008145 -0.988244
vn -0.144944 0.106098 -0.983735
vn -0.144944 0.106098 -0.983735
vn -0.144944 0.106098 -0.983735
vn -0.144944 0.106098 -0.983735
vn -0.127826 0.006745 -0.991774
vn -0.127826 0.006745 -0.991774
vn -0.001030 0.999887 -0.015024
vn -0.001030 0.999887 -0.015024
vn -0.001030 0.999887 -0.015024
vn -0.001030 0.999887 -0.015024
vn 0.970482 -0.004073 -0.241139
vn 0.970482 -0.004073 -0.241138
vn 0.970482 -0.004073 -0.241139
vn 0.970482 -0.004073 -0.241138
vn 0.000872 -0.999884 0.015228
vn 0.000872 -0.999884 0.015228
vn 0.000872 -0.999884 0.015228
vn 0.000872 -0.999884 0.015228
vn -0.923268 -0.001898 0.384153
vn -0.923268 -0.001898 0.384152
vn -0.923268 -0.001898 0.384152
vn -0.923268 -0.001898 0.384153
vn 0.000665 0.999941 0.010855
vn 0.000665 0.999941 0.010855
vn 0.000665 0.999941 0.010855
vn 0.000665 0.999941 0.010855
vn 0.962866 0.001418 -0.269977
vn 0.962866 0.001418 -0.269977
vn 0.962866 0.001418 -0.269977
vn 0.962866 0.001418 -0.269977
vn -0.000764 -0.999944 -0.010594
vn -0.000764 -0.999944 -0.010594
vn -0.000764 -0.999944 -0.010594
vn -0.000764 -0.999944 -0.010594
vn -0.958400 0.018199 0.284847
vn -0.958400 0.018199 0.284847
vn -0.958400 0.018199 0.284847
vn -0.958400 0.018199 0.284847
vn -0.972322 0.008791 -0.233479
vn -0.994000 -0.000336 -0.109377
vn -0.993797 -0.005672 -0.111064
vn -0.992155 -0.007313 -0.124804
vn -0.908844 0.012713 0.416943
vn -0.867381 0.000092 0.497645
vn -0.976816 0.008842 -0.213900
vn -0.982548 0.002869 0.185985
vn 0.055201 -0.009716 -0.998428
vn 0.055201 -0.009716 -0.998428
vn 0.055201 -0.009716 -0.998428
vn 0.055201 -0.009716 -0.998428
vn 0.006567 -0.999955 0.006909
vn 0.006567 -0.999955 0.006909
vn 0.006567 -0.999955 0.006909
vn 0.006567 -0.999955 0.006909
vn -0.286161 0.009334 0.958136
vn -0.286161 0.009334 0.958136
vn -0.286161 0.009334 0.958136
vn -0.286161 0.009334 0.958136
vn 0.437142 0.463215 -0.770934
vn 0.437142 0.463215 -0.770934
vn 0.437142 0.463215 -0.770934
vn 0.437142 0.463215 -0.770934
vn -0.994909 0.024870 -0.097666
vn -0.982241 -0.005689 -0.187540
vn -0.993766 0.020503 -0.109582
vn -0.994904 0.025050 -0.097669
vn -0.987051 -0.006000 -0.160295
vn -0.981688 0.004258 0.190450
vn -0.849058 0.018880 0.527962
vn -0.826470 0.017575 0.562707
vn 0.039164 0.003261 -0.999228
vn 0.039164 0.003261 -0.999228
vn 0.039164 0.003261 -0.999227
vn 0.039164 0.003261 -0.999227
vn 0.311658 -0.529054 -0.789285
vn 0.311658 -0.529054 -0.789285
vn 0.311658 -0.529054 -0.789285
vn 0.311658 -0.529054 -0.789285
vn -0.285776 -0.001441 0.958295
vn -0.285776 -0.001441 0.958296
vn -0.285776 -0.001441 0.958295
vn -0.285776 -0.001441 0.958296
vn 0.019939 0.999778 0.006782
vn 0.019939 0.999778 0.006782
vn 0.019939 0.999778 0.006782
vn 0.019939 0.999778 0.006782
s 1
g fridge
f 61/1/1 62/2/2 63/153/3 64/154/4
s 2
f 65/150/5 66/6/6 67/7/7 68/149/8
s 3
f 69/9/9 70/10/10 71/11/11 72/12/12
s 4
f 35/13/13 36/14/14 12/15/15 11/16/16
s 5
f 73/17/17 74/18/18 75/19/19 76/20/20
s 6
f 13/136/21 14/133/22 29/23/23 30/24/24
s 4
f 34/25/25 35/13/13 11/16/16 4/26/26
s 7
f 31/126/27 32/28/28 18/29/29 19/129/30
s 5
f 63/3/31 73/17/17 76/20/20 64/4/32
s 3
f 71/11/11 70/10/10 77/141/33 78/142/34
s 4
f 36/14/14 25/33/35 2/34/36 12/15/15
s 5
f 74/18/18 65/5/37 68/8/38 75/19/19
s 8
f 27/35/39 28/130/40 21/37/41 23/38/42
s off
f 24/39/43 7/40/44 16/147/45 22/42/46
s 9
f 32/28/47 33/43/48 6/44/49 18/29/50
s off
f 6/44/51 13/160/52 19/129/53 18/29/54
s 10
f 13/136/55 30/24/56 31/27/57 19/30/58
s off
f 15/148/59 5/143/60 17/47/61 20/48/62
s 11
f 28/36/63 29/23/64 14/133/65 21/131/66
s off
f 14/159/67 8/151/68 23/38/69 21/37/70
s 12
f 8/151/71 26/50/72 27/35/73 23/38/74
s off
f 79/138/75 69/9/76 72/12/77 80/137/78
s 2
f 66/6/6 81/53/79 82/54/80 67/7/7
s 12
f 27/35/73 26/50/72 38/55/81 39/56/82
s 8
f 39/56/83 40/57/84 28/130/40 27/35/39
s 11
f 40/127/85 41/58/86 29/23/64 28/36/63
s 6
f 30/24/24 29/23/23 41/58/87 42/59/88
s 10
f 31/27/57 30/24/56 42/59/89 43/125/90
s 7
f 43/60/91 44/61/92 32/28/28 31/126/27
s 9
f 44/61/93 45/62/94 33/43/48 32/28/47
s 1
f 83/63/95 84/64/96 62/2/2 61/1/1
s 4
f 46/65/97 47/66/98 35/13/13 34/25/25
f 47/66/98 48/67/99 36/14/14 35/13/13
f 48/67/99 37/68/100 25/33/35 36/14/14
s 2
f 80/52/101 82/54/80 81/53/79 79/51/102
s 12
f 39/56/82 38/55/81 7/40/103 24/39/104
s off
f 94/69/105 93/70/106 95/71/107 96/72/108
s 11
f 16/132/109 41/58/86 40/127/85 22/128/110
s 6
f 42/59/88 41/58/87 16/132/111 15/135/112
s 10
f 43/125/90 42/59/89 15/135/113 20/134/114
s off
f 97/73/115 98/74/116 99/75/117 100/76/118
s 9
f 5/143/119 45/62/94 44/61/93 17/47/120
s 1
f 77/31/121 84/64/96 83/63/95 78/32/122
s 4
f 10/77/123 47/66/98 46/65/97 3/78/124
f 10/77/123 9/79/125 48/67/99 47/66/98
f 1/80/126 37/68/100 48/67/99 9/79/125
s 13
f 3/78/127 46/65/128 50/81/129 49/82/130
f 51/83/131 50/81/129 46/65/128 34/25/132
f 52/156/133 51/83/131 34/25/132 4/26/134
s 14
f 11/16/135 53/158/136 52/156/137 4/26/138
f 11/16/135 12/15/139 54/157/140 53/158/136
f 2/34/141 55/87/142 54/157/140 12/15/139
s 15
f 25/33/143 56/88/144 55/87/145 2/34/146
f 37/68/147 57/89/148 56/88/144 25/33/143
f 58/140/149 57/89/148 37/68/147 1/80/150
s off
f 1/80/151 9/79/152 59/146/153 58/140/154
s 16
f 9/79/155 10/77/156 60/145/157 59/146/158
f 49/82/159 60/145/157 10/77/156 3/78/160
s off
f 51/83/161 52/156/162 63/153/163 62/2/164
f 6/44/165 33/43/166 61/1/167 64/154/168
f 55/87/169 56/88/170 66/6/171 65/150/172
f 26/50/173 8/151/174 68/149/175 67/7/176
f 59/91/177 60/92/178 70/10/179 69/9/180
f 15/45/181 16/41/182 72/12/183 71/11/184
f 53/85/185 54/86/186 74/18/187 73/17/188
f 14/22/189 13/21/190 76/20/191 75/19/192
f 52/84/193 53/85/194 73/17/195 63/3/196
f 13/21/197 6/155/198 64/4/199 76/20/200
f 60/92/201 49/144/202 77/141/203 70/10/204
f 5/46/205 15/45/206 71/11/207 78/142/208
f 54/86/209 55/152/210 65/5/211 74/18/212
f 8/49/213 14/22/214 75/19/215 68/8/216
f 58/90/217 59/91/218 69/9/219 79/138/220
f 16/41/221 7/139/222 80/137/223 72/12/224
f 56/88/225 57/89/226 81/53/227 66/6/228
f 38/55/229 26/50/230 67/7/231 82/54/232
f 50/81/233 51/83/234 62/2/235 84/64/236
f 33/43/237 45/62/238 83/63/239 61/1/240
f 7/40/241 38/55/242 82/54/243 80/52/244
f 57/89/245 58/140/246 79/51/247 81/53/248
f 49/82/249 50/81/250 84/64/251 77/31/252
f 45/62/253 5/143/254 78/32/255 83/63/256
f 22/42/257 40/57/258 85/124/259 86/122/260
s 8
f 40/57/84 39/56/83 87/123/261 85/124/262
f 39/56/83 24/39/263 88/121/264 87/123/261
f 24/39/263 22/42/265 86/122/266 88/121/264
s 7
f 17/47/267 44/61/92 90/120/268 89/118/269
f 44/61/92 43/60/91 91/119/270 90/120/268
s off
f 43/60/271 20/48/272 92/117/273 91/119/274
s 7
f 20/48/275 17/47/267 89/118/269 92/117/276
s off
f 86/94/277 85/93/278 93/70/279 94/69/280
f 85/93/281 87/95/282 95/71/283 93/70/284
f 87/95/285 88/96/286 96/72/287 95/71/288
f 105/101/289 106/102/290 107/103/291 108/104/292
f 89/98/293 90/97/294 98/74/295 97/73/296
f 90/97/297 91/99/298 99/75/299 98/74/300
f 91/99/301 92/100/302 100/76/303 99/75/304
f 113/105/305 114/106/306 115/107/307 116/108/308
s 17
f 88/96/309 86/94/310 102/109/311 101/110/312
f 86/94/310 94/69/313 103/111/314 102/109/311
f 94/69/313 96/72/315 104/112/316 103/111/314
f 96/72/315 88/96/309 101/110/312 104/112/316
s off
f 101/110/317 102/109/318 106/102/319 105/101/320
f 102/109/321 103/111/322 107/103/323 106/102/324
f 103/111/325 104/112/326 108/104/327 107/103/328
f 104/112/329 101/110/330 105/101/331 108/104/332
s 18
f 92/100/333 89/98/334 110/113/335 109/114/336
f 89/98/334 97/73/337 111/115/338 110/113/335
f 97/73/337 100/76/339 112/116/340 111/115/338
f 100/76/339 92/100/333 109/114/336 112/116/340
s off
f 109/114/341 110/113/342 114/106/343 113/105/344
f 110/113/345 111/115/346 115/107/347 114/106/348
f 111/115/349 112/116/350 116/108/351 115/107/352
f 112/116/353 109/114/354 113/105/355 116/108/356
