# This file uses centimeters as units for non-parametric coordinates.

mtllib kitchenCounterTwo.mtl
g default
v 6.556801 -0.000000 -0.572344
v 7.492948 -0.000000 -0.572344
v 6.556801 1.026730 -0.572344
v 7.492948 1.026730 -0.572344
v 6.556801 1.026730 -1.392917
v 7.492948 1.026730 -1.392917
v 6.556801 -0.000000 -1.392917
v 7.492948 -0.000000 -1.392917
v 6.556801 0.978920 -0.572344
v 7.492948 0.978920 -0.572344
v 7.492948 0.978920 -1.392917
v 6.556801 0.978920 -1.392917
v 6.556801 0.946294 -0.572344
v 7.492948 0.946294 -0.572344
v 7.492948 0.946294 -1.392917
v 6.556801 0.946294 -1.392917
v 6.556801 0.728098 -0.572344
v 7.492948 0.728098 -0.572344
v 7.492948 0.728099 -1.392917
v 6.556801 0.728099 -1.392917
v 6.556801 0.697099 -0.572344
v 7.492948 0.697099 -0.572344
v 7.492948 0.697099 -1.392917
v 6.556801 0.697099 -1.392917
v 6.556801 0.466730 -0.572344
v 7.492948 0.466730 -0.572344
v 7.492948 0.466730 -1.392917
v 6.556801 0.466730 -1.392917
v 6.556801 0.434639 -0.572344
v 7.492948 0.434639 -0.572344
v 7.492948 0.434640 -1.392917
v 6.556801 0.434640 -1.392917
v 6.556801 0.728098 -0.540276
v 7.492948 0.728098 -0.540276
v 7.492948 0.946294 -0.540276
v 6.556801 0.946294 -0.540276
v 6.556801 0.466730 -0.540276
v 7.492948 0.466730 -0.540276
v 7.492948 0.697099 -0.540276
v 6.556801 0.697099 -0.540276
v 6.556801 -0.000000 -0.540276
v 7.492948 -0.000000 -0.540276
v 7.492948 0.434639 -0.540276
v 6.556801 0.434639 -0.540276
v 6.556801 0.978920 -0.506167
v 7.492948 0.978920 -0.506167
v 7.492948 1.026730 -0.506167
v 6.556801 1.026730 -0.506167
vt 0.481772 0.750766
vt 0.481772 0.750766
vt 0.481772 0.745283
vt 0.481772 0.745283
vt 0.475732 0.745283
vt 0.475732 0.745283
vt 0.400833 0.745283
vt 0.400833 0.745283
vt 0.403296 0.843504
vt 0.403296 0.843504
vt 0.403296 0.846259
vt 0.403296 0.846259
vt 0.403296 0.902669
vt 0.403296 0.902669
vt 0.478194 0.902669
vt 0.478194 0.902669
vt 0.478194 0.846259
vt 0.478194 0.843504
vt 0.478194 0.846259
vt 0.478194 0.843504
vt 0.388182 0.952044
vt 0.388182 0.945496
vt 0.419832 0.945496
vt 0.419832 0.952044
vt 0.478194 0.848139
vt 0.403296 0.848139
vt 0.403296 0.848139
vt 0.478194 0.848139
vt 0.492452 0.814350
vt 0.492452 0.814350
vt 0.492452 0.801776
vt 0.492452 0.801776
vt 0.478194 0.860713
vt 0.403296 0.860713
vt 0.403296 0.860713
vt 0.478194 0.860713
vt 0.426403 0.952044
vt 0.426403 0.945496
vt 0.456475 0.945496
vt 0.456475 0.952044
vt 0.478194 0.862499
vt 0.403296 0.862499
vt 0.403296 0.862499
vt 0.478194 0.862499
vt 0.492452 0.829411
vt 0.492452 0.829411
vt 0.492452 0.816136
vt 0.492452 0.816136
vt 0.478194 0.875774
vt 0.403296 0.875774
vt 0.403296 0.875774
vt 0.478194 0.875774
vt 0.462631 0.952044
vt 0.462631 0.945496
vt 0.493762 0.945496
vt 0.493762 0.952044
vt 0.478194 0.877623
vt 0.403296 0.877623
vt 0.403296 0.877623
vt 0.478194 0.877623
vt 0.492452 0.856306
vt 0.492452 0.856306
vt 0.492452 0.831260
vt 0.492452 0.831260
vt 0.489525 0.814350
vt 0.489525 0.814350
vt 0.489525 0.801776
vt 0.489525 0.801776
vt 0.489525 0.829411
vt 0.489525 0.829411
vt 0.489525 0.816136
vt 0.489525 0.816136
vt 0.489525 0.856306
vt 0.489525 0.856306
vt 0.489525 0.831260
vt 0.489525 0.831260
vt 0.484235 0.846259
vt 0.484235 0.846259
vt 0.484235 0.843504
vt 0.484235 0.843504
vn 0.000000 0.000000 1.000000
vn 0.000000 0.000000 1.000000
vn 0.000000 0.000000 1.000000
vn 0.000000 0.000000 1.000000
vn 0.000000 1.000000 0.000000
vn 0.000000 1.000000 0.000000
vn 0.000000 1.000000 0.000000
vn 0.000000 1.000000 0.000000
vn 0.000000 0.000000 -1.000000
vn 0.000000 0.000000 -1.000000
vn 0.000000 0.000000 -1.000000
vn 0.000000 0.000000 -1.000000
vn 0.000000 -1.000000 0.000000
vn 0.000000 -1.000000 0.000000
vn 0.000000 -1.000000 0.000000
vn 0.000000 -1.000000 0.000000
vn 1.000000 0.000000 0.000000
vn 1.000000 0.000000 0.000000
vn 1.000000 0.000000 0.000000
vn 1.000000 0.000000 0.000000
vn -1.000000 0.000000 0.000000
vn -1.000000 0.000000 0.000000
vn -1.000000 0.000000 0.000000
vn -1.000000 0.000000 0.000000
vn 0.000000 0.000000 1.000000
vn 0.000000 0.000000 1.000000
vn 0.000000 0.000000 1.000000
vn 0.000000 0.000000 1.000000
vn 1.000000 0.000000 0.000000
vn 1.000000 0.000000 0.000000
vn 0.000000 0.000000 -1.000000
vn 0.000000 0.000000 -1.000000
vn -1.000000 0.000000 0.000000
vn -1.000000 0.000000 0.000000
vn 0.000000 0.000000 1.000000
vn 0.000000 0.000000 1.000000
vn 0.000000 0.000000 1.000000
vn 0.000000 0.000000 1.000000
vn 1.000000 0.000000 0.000000
vn 1.000000 0.000000 0.000000
vn 0.000000 0.000000 -1.000000
vn 0.000000 0.000000 -1.000000
vn -1.000000 0.000000 0.000000
vn -1.000000 0.000000 0.000000
vn 0.000000 0.000000 1.000000
vn 0.000000 0.000000 1.000000
vn 0.000000 0.000000 1.000000
vn 0.000000 0.000000 1.000000
vn 1.000000 0.000000 0.000000
vn 1.000000 0.000000 0.000000
vn 0.000000 0.000000 -1.000000
vn 0.000000 0.000000 -1.000000
vn -1.000000 0.000000 0.000000
vn -1.000000 0.000000 0.000000
vn 0.000000 0.000000 1.000000
vn 0.000000 0.000000 1.000000
vn 0.000000 0.000000 1.000000
vn 0.000000 0.000000 1.000000
vn 1.000000 0.000000 0.000000
vn 1.000000 0.000000 0.000000
vn 0.000000 0.000000 -1.000000
vn 0.000000 0.000000 -1.000000
vn -1.000000 0.000000 0.000000
vn -1.000000 0.000000 0.000000
vn 0.000000 0.000000 1.000000
vn 0.000000 0.000000 1.000000
vn 0.000000 0.000000 1.000000
vn 0.000000 0.000000 1.000000
vn 1.000000 0.000000 0.000000
vn 1.000000 0.000000 0.000000
vn 0.000000 0.000000 -1.000000
vn 0.000000 0.000000 -1.000000
vn -1.000000 0.000000 0.000000
vn -1.000000 0.000000 0.000000
vn 0.000000 0.000000 1.000000
vn 0.000000 0.000000 1.000000
vn 0.000000 0.000000 1.000000
vn 0.000000 0.000000 1.000000
vn 1.000000 0.000000 0.000000
vn 1.000000 0.000000 0.000000
vn 0.000000 0.000000 -1.000000
vn 0.000000 0.000000 -1.000000
vn -1.000000 0.000000 0.000000
vn -1.000000 0.000000 0.000000
vn 0.000000 -1.000000 0.000000
vn 0.000000 -1.000000 0.000000
vn 0.000000 -1.000000 0.000000
vn 0.000000 -1.000000 0.000000
vn 1.000000 0.000000 0.000000
vn 1.000000 0.000000 0.000000
vn 1.000000 0.000000 0.000000
vn 1.000000 0.000000 0.000000
vn 0.000000 1.000000 0.000000
vn 0.000000 1.000000 0.000000
vn 0.000000 1.000000 0.000000
vn 0.000000 1.000000 0.000000
vn -1.000000 0.000000 0.000000
vn -1.000000 0.000000 0.000000
vn -1.000000 0.000000 0.000000
vn -1.000000 0.000000 0.000000
vn 0.000000 -1.000000 0.000000
vn 0.000000 -1.000000 0.000000
vn 0.000000 -1.000000 0.000000
vn 0.000000 -1.000000 0.000000
vn 1.000000 0.000000 0.000000
vn 1.000000 0.000000 0.000000
vn 1.000000 0.000000 0.000000
vn 1.000000 0.000000 0.000000
vn 0.000000 1.000000 0.000000
vn 0.000000 1.000000 0.000000
vn 0.000000 1.000000 0.000000
vn 0.000000 1.000000 0.000000
vn -1.000000 0.000000 0.000000
vn -1.000000 0.000000 0.000000
vn -1.000000 0.000000 0.000000
vn -1.000000 0.000000 0.000000
vn 0.000000 -1.000000 0.000000
vn 0.000000 -1.000000 0.000000
vn 0.000000 -1.000000 0.000000
vn 0.000000 -1.000000 0.000000
vn 1.000000 0.000000 0.000000
vn 1.000000 0.000000 0.000000
vn 1.000000 0.000000 0.000000
vn 1.000000 0.000000 0.000000
vn 0.000000 1.000000 0.000000
vn 0.000000 1.000000 0.000000
vn 0.000000 1.000000 0.000000
vn 0.000000 1.000000 0.000000
vn -1.000000 0.000000 0.000000
vn -1.000000 0.000000 0.000000
vn -1.000000 0.000000 0.000000
vn -1.000000 0.000000 0.000000
vn 0.000000 -1.000000 0.000000
vn 0.000000 -1.000000 0.000000
vn 0.000000 -1.000000 0.000000
vn 0.000000 -1.000000 0.000000
vn 1.000000 0.000000 0.000000
vn 1.000000 0.000000 0.000000
vn 1.000000 0.000000 0.000000
vn 1.000000 0.000000 0.000000
vn 0.000000 1.000000 0.000000
vn 0.000000 1.000000 0.000000
vn 0.000000 1.000000 0.000000
vn 0.000000 1.000000 0.000000
vn -1.000000 0.000000 0.000000
vn -1.000000 0.000000 0.000000
vn -1.000000 0.000000 0.000000
vn -1.000000 0.000000 0.000000
s off
g polySurface3 pCube9
usemtl lambert2SG
f 45/1/1 46/2/2 47/3/3 48/4/4
f 3/5/5 4/6/6 6/7/7 5/8/8
s 1
f 5/9/9 6/10/10 11/11/11 12/12/12
s off
f 7/13/13 8/14/14 2/15/15 1/16/16
s 2
f 10/17/17 11/11/18 6/10/19 4/18/20
s 3
f 12/12/21 9/19/22 3/20/23 5/9/24
s off
f 13/21/25 14/22/26 10/23/27 9/24/28
s 2
f 14/25/29 15/26/30 11/11/18 10/17/17
s 1
f 12/12/12 11/11/11 15/26/31 16/27/32
s 3
f 16/27/33 13/28/34 9/19/22 12/12/21
s off
f 33/29/35 34/30/36 35/31/37 36/32/38
s 2
f 18/33/39 19/34/40 15/26/30 14/25/29
s 1
f 16/27/32 15/26/31 19/34/41 20/35/42
s 3
f 20/35/43 17/36/44 13/28/34 16/27/33
s off
f 21/37/45 22/38/46 18/39/47 17/40/48
s 2
f 22/41/49 23/42/50 19/34/40 18/33/39
s 1
f 20/35/42 19/34/41 23/42/51 24/43/52
s 3
f 24/43/53 21/44/54 17/36/44 20/35/43
s off
f 37/45/55 38/46/56 39/47/57 40/48/58
s 2
f 26/49/59 27/50/60 23/42/50 22/41/49
s 1
f 24/43/52 23/42/51 27/50/61 28/51/62
s 3
f 28/51/63 25/52/64 21/44/54 24/43/53
s off
f 29/53/65 30/54/66 26/55/67 25/56/68
s 2
f 30/57/69 31/58/70 27/50/60 26/49/59
s 1
f 28/51/62 27/50/61 31/58/71 32/59/72
s 3
f 32/59/73 29/60/74 25/52/64 28/51/63
s off
f 41/61/75 42/62/76 43/63/77 44/64/78
s 2
f 2/15/79 8/14/80 31/58/70 30/57/69
s 1
f 32/59/72 31/58/71 8/14/81 7/13/82
s 3
f 7/13/83 1/16/84 29/60/74 32/59/73
s off
f 17/65/85 18/66/86 34/30/87 33/29/88
f 18/66/89 14/67/90 35/31/91 34/30/92
f 14/67/93 13/68/94 36/32/95 35/31/96
f 13/68/97 17/65/98 33/29/99 36/32/100
f 25/69/101 26/70/102 38/46/103 37/45/104
f 26/70/105 22/71/106 39/47/107 38/46/108
f 22/71/109 21/72/110 40/48/111 39/47/112
f 21/72/113 25/69/114 37/45/115 40/48/116
f 1/73/117 2/74/118 42/62/119 41/61/120
f 2/74/121 30/75/122 43/63/123 42/62/124
f 30/75/125 29/76/126 44/64/127 43/63/128
f 29/76/129 1/73/130 41/61/131 44/64/132
f 9/19/133 10/17/134 46/77/135 45/78/136
f 10/17/137 4/18/138 47/79/139 46/77/140
f 4/6/141 3/5/142 48/4/143 47/3/144
f 3/20/145 9/19/146 45/78/147 48/80/148
