# This file uses centimeters as units for non-parametric coordinates.

mtllib kitchenCounterOne.mtl
g default
v 7.491887 -0.000000 -0.571741
v 8.428034 -0.000000 -0.571741
v 7.491887 1.026730 -0.571741
v 8.428034 1.026730 -0.571741
v 7.491887 1.026730 -1.392314
v 8.428034 1.026730 -1.392314
v 7.491887 -0.000000 -1.392314
v 8.428034 -0.000000 -1.392314
v 7.491887 0.978920 -0.571741
v 8.428034 0.978920 -0.571741
v 8.428034 0.978920 -1.392314
v 7.491887 0.978920 -1.392314
v 7.491887 0.946294 -0.571741
v 8.428034 0.946294 -0.571741
v 8.428034 0.946294 -1.392314
v 7.491887 0.946294 -1.392314
v 7.491887 0.728098 -0.571741
v 8.428034 0.728098 -0.571741
v 8.428034 0.728099 -1.392314
v 7.491887 0.728099 -1.392314
v 7.491887 0.697099 -0.571741
v 8.428034 0.697099 -0.571741
v 8.428034 0.697099 -1.392314
v 7.491887 0.697099 -1.392314
v 7.491887 0.728098 -0.539672
v 8.428034 0.728098 -0.539672
v 8.428034 0.946294 -0.539672
v 7.491887 0.946294 -0.539672
v 7.491887 0.697099 -0.539672
v 8.428034 0.697099 -0.539672
v 7.491887 -0.000000 -0.539672
v 8.428034 -0.000000 -0.539672
v 7.491887 0.978920 -0.505564
v 8.428034 0.978920 -0.505564
v 8.428034 1.026730 -0.505564
v 7.491887 1.026730 -0.505564
vt 0.481772 0.750766
vt 0.481772 0.750766
vt 0.481772 0.745283
vt 0.481772 0.745283
vt 0.475732 0.745283
vt 0.475732 0.745283
vt 0.400833 0.745283
vt 0.400833 0.745283
vt 0.403296 0.843504
vt 0.403296 0.843504
vt 0.403296 0.846259
vt 0.403296 0.846259
vt 0.403296 0.902669
vt 0.403296 0.902669
vt 0.478194 0.902669
vt 0.478194 0.902669
vt 0.478194 0.846259
vt 0.478194 0.843504
vt 0.478194 0.846259
vt 0.478194 0.843504
vt 0.388182 0.952044
vt 0.388182 0.945496
vt 0.419832 0.945496
vt 0.419832 0.952044
vt 0.478194 0.848139
vt 0.403296 0.848139
vt 0.403296 0.848139
vt 0.478194 0.848139
vt 0.492452 0.814350
vt 0.492452 0.814350
vt 0.492452 0.801776
vt 0.492452 0.801776
vt 0.478194 0.860713
vt 0.403296 0.860713
vt 0.403296 0.860713
vt 0.478194 0.860713
vt 0.429880 0.952043
vt 0.429377 0.945496
vt 0.456475 0.945496
vt 0.456475 0.952044
vt 0.478191 0.862502
vt 0.403297 0.862501
vt 0.403297 0.862502
vt 0.478191 0.862502
vt 0.492452 0.856306
vt 0.492452 0.856306
vt 0.492417 0.816149
vt 0.492401 0.816149
vt 0.489525 0.814350
vt 0.489525 0.814350
vt 0.489525 0.801776
vt 0.489525 0.801776
vt 0.489525 0.856306
vt 0.489525 0.856306
vt 0.489687 0.816156
vt 0.489685 0.816156
vt 0.484235 0.846259
vt 0.484235 0.846259
vt 0.484235 0.843504
vt 0.484235 0.843504
vn 0.000000 0.000000 1.000000
vn 0.000000 0.000000 1.000000
vn 0.000000 0.000000 1.000000
vn 0.000000 0.000000 1.000000
vn 0.000000 1.000000 0.000000
vn 0.000000 1.000000 0.000000
vn 0.000000 1.000000 0.000000
vn 0.000000 1.000000 0.000000
vn 0.000000 0.000000 -1.000000
vn 0.000000 0.000000 -1.000000
vn 0.000000 0.000000 -1.000000
vn 0.000000 0.000000 -1.000000
vn 0.000000 -1.000000 0.000000
vn 0.000000 -1.000000 0.000000
vn 0.000000 -1.000000 0.000000
vn 0.000000 -1.000000 0.000000
vn 1.000000 0.000000 0.000000
vn 1.000000 0.000000 0.000000
vn 1.000000 0.000000 0.000000
vn 1.000000 0.000000 0.000000
vn -1.000000 0.000000 0.000000
vn -1.000000 0.000000 0.000000
vn -1.000000 0.000000 0.000000
vn -1.000000 0.000000 0.000000
vn 0.000000 0.000000 1.000000
vn 0.000000 0.000000 1.000000
vn 0.000000 0.000000 1.000000
vn 0.000000 0.000000 1.000000
vn 1.000000 0.000000 0.000000
vn 1.000000 0.000000 0.000000
vn 0.000000 0.000000 -1.000000
vn 0.000000 0.000000 -1.000000
vn -1.000000 0.000000 0.000000
vn -1.000000 0.000000 0.000000
vn 0.000000 0.000000 1.000000
vn 0.000000 0.000000 1.000000
vn 0.000000 0.000000 1.000000
vn 0.000000 0.000000 1.000000
vn 1.000000 0.000000 0.000000
vn 1.000000 0.000000 0.000000
vn 0.000000 0.000000 -1.000000
vn 0.000000 0.000000 -1.000000
vn -1.000000 0.000000 0.000000
vn -1.000000 0.000000 0.000000
vn 0.000000 0.000000 1.000000
vn 0.000000 0.000000 1.000000
vn 0.000000 0.000000 1.000000
vn 0.000000 0.000000 1.000000
vn 1.000000 0.000000 0.000000
vn 1.000000 0.000000 0.000000
vn 0.000000 0.000000 -1.000000
vn 0.000000 0.000000 -1.000000
vn -1.000000 0.000000 0.000000
vn -1.000000 0.000000 0.000000
vn 0.000000 0.000000 1.000000
vn 0.000000 0.000000 1.000000
vn 0.000000 0.000000 1.000000
vn 0.000000 0.000000 1.000000
vn 1.000000 0.000000 0.000000
vn 1.000000 0.000000 0.000000
vn 0.000000 0.000000 -1.000000
vn 0.000000 0.000000 -1.000000
vn -1.000000 0.000000 0.000000
vn -1.000000 0.000000 0.000000
vn 0.000000 -1.000000 0.000000
vn 0.000000 -1.000000 0.000000
vn 0.000000 -1.000000 0.000000
vn 0.000000 -1.000000 0.000000
vn 1.000000 0.000000 0.000000
vn 1.000000 0.000000 0.000000
vn 1.000000 0.000000 0.000000
vn 1.000000 0.000000 0.000000
vn 0.000000 1.000000 0.000000
vn 0.000000 1.000000 0.000000
vn 0.000000 1.000000 0.000000
vn 0.000000 1.000000 0.000000
vn -1.000000 0.000000 0.000000
vn -1.000000 0.000000 0.000000
vn -1.000000 0.000000 0.000000
vn -1.000000 0.000000 0.000000
vn 0.000000 -1.000000 0.000000
vn 0.000000 -1.000000 0.000000
vn 0.000000 -1.000000 0.000000
vn 0.000000 -1.000000 0.000000
vn 1.000000 0.000000 0.000000
vn 1.000000 0.000000 0.000000
vn 1.000000 0.000000 0.000000
vn 1.000000 0.000000 0.000000
vn 0.000000 1.000000 0.000000
vn 0.000000 1.000000 0.000000
vn 0.000000 1.000000 0.000000
vn 0.000000 1.000000 0.000000
vn -1.000000 0.000000 0.000000
vn -1.000000 0.000000 0.000000
vn -1.000000 0.000000 0.000000
vn -1.000000 0.000000 0.000000
vn 0.000000 -1.000000 0.000000
vn 0.000000 -1.000000 0.000000
vn 0.000000 -1.000000 0.000000
vn 0.000000 -1.000000 0.000000
vn 1.000000 0.000000 0.000000
vn 1.000000 0.000000 0.000000
vn 1.000000 0.000000 0.000000
vn 1.000000 0.000000 0.000000
vn 0.000000 1.000000 0.000000
vn 0.000000 1.000000 0.000000
vn 0.000000 1.000000 0.000000
vn 0.000000 1.000000 0.000000
vn -1.000000 0.000000 0.000000
vn -1.000000 0.000000 0.000000
vn -1.000000 0.000000 0.000000
vn -1.000000 0.000000 0.000000
s off
g polySurface1 pCube9
usemtl lambert2SG
f 33/1/1 34/2/2 35/3/3 36/4/4
f 3/5/5 4/6/6 6/7/7 5/8/8
s 1
f 5/9/9 6/10/10 11/11/11 12/12/12
s off
f 7/13/13 8/14/14 2/15/15 1/16/16
s 2
f 10/17/17 11/11/18 6/10/19 4/18/20
s 3
f 12/12/21 9/19/22 3/20/23 5/9/24
s off
f 13/21/25 14/22/26 10/23/27 9/24/28
s 2
f 14/25/29 15/26/30 11/11/18 10/17/17
s 1
f 12/12/12 11/11/11 15/26/31 16/27/32
s 3
f 16/27/33 13/28/34 9/19/22 12/12/21
s off
f 25/29/35 26/30/36 27/31/37 28/32/38
s 2
f 18/33/39 19/34/40 15/26/30 14/25/29
s 1
f 16/27/32 15/26/31 19/34/41 20/35/42
s 3
f 20/35/43 17/36/44 13/28/34 16/27/33
s off
f 21/37/45 22/38/46 18/39/47 17/40/48
s 2
f 22/41/49 23/42/50 19/34/40 18/33/39
s 1
f 20/35/42 19/34/41 23/42/51 24/43/52
s 3
f 24/43/53 21/44/54 17/36/44 20/35/43
s off
f 31/45/55 32/46/56 30/47/57 29/48/58
s 2
f 2/15/59 8/14/60 23/42/50 22/41/49
s 1
f 24/43/52 23/42/51 8/14/61 7/13/62
s 3
f 7/13/63 1/16/64 21/44/54 24/43/53
s off
f 17/49/65 18/50/66 26/30/67 25/29/68
f 18/50/69 14/51/70 27/31/71 26/30/72
f 14/51/73 13/52/74 28/32/75 27/31/76
f 13/52/77 17/49/78 25/29/79 28/32/80
f 1/53/81 2/54/82 32/46/83 31/45/84
f 2/54/85 22/55/86 30/47/87 32/46/88
f 22/55/89 21/56/90 29/48/91 30/47/92
f 21/56/93 1/53/94 31/45/95 29/48/96
f 9/19/97 10/17/98 34/57/99 33/58/100
f 10/17/101 4/18/102 35/59/103 34/57/104
f 4/6/105 3/5/106 36/4/107 35/3/108
f 3/20/109 9/19/110 33/58/111 36/60/112
