# This file uses centimeters as units for non-parametric coordinates.

mtllib tableLamp.mtl
g default
v 5.908937 1.751519 3.266789
v 5.849291 1.751519 3.266789
v 5.819468 1.789953 3.301301
v 5.849291 1.828387 3.335811
v 5.908937 1.828387 3.335811
v 5.938760 1.789953 3.301301
v 5.908937 1.831221 3.178030
v 5.849291 1.831221 3.178030
v 5.819468 1.869654 3.212541
v 5.849291 1.908088 3.247053
v 5.908937 1.908088 3.247053
v 5.938760 1.869654 3.212541
v 5.879114 1.901066 3.166487
v 5.931125 1.692845 3.274220
v 5.827103 1.692845 3.274220
v 5.775092 1.759873 3.334408
v 5.827103 1.826901 3.394595
v 5.931125 1.826901 3.394595
v 5.983135 1.759873 3.334408
v 5.955757 1.610177 3.300680
v 5.802471 1.610177 3.300680
v 5.725828 1.708950 3.389373
v 5.802471 1.807723 3.478065
v 5.955757 1.807723 3.478065
v 6.032400 1.708950 3.389373
v 5.955757 1.549143 3.373308
v 5.802471 1.549143 3.373308
v 5.725828 1.647915 3.462001
v 5.802471 1.746688 3.550694
v 5.955757 1.746688 3.550694
v 6.032400 1.647915 3.462001
v 5.953272 1.533892 3.394795
v 5.805288 1.534041 3.394928
v 5.731130 1.629584 3.480721
v 5.804955 1.724979 3.566380
v 5.952940 1.724830 3.566246
v 6.027098 1.629287 3.480454
v 5.943363 1.546659 3.406258
v 5.815152 1.546787 3.406374
v 5.750903 1.629564 3.480703
v 5.814864 1.712212 3.554916
v 5.943075 1.712083 3.554801
v 6.007324 1.629306 3.480472
v 5.943363 1.571357 3.372992
v 5.815152 1.571486 3.373108
v 5.750903 1.654263 3.447437
v 5.814864 1.736911 3.521651
v 5.943075 1.736782 3.521534
v 6.007324 1.654005 3.447206
v 5.943363 1.621703 3.310984
v 5.815152 1.621832 3.311100
v 5.750903 1.704608 3.385429
v 5.814864 1.787257 3.459643
v 5.943075 1.787127 3.459527
v 6.007324 1.704351 3.385198
v 5.926176 1.692213 3.291162
v 5.832263 1.692307 3.291247
v 5.879114 1.752846 3.345607
v 5.785202 1.752940 3.345691
v 5.832052 1.813479 3.400052
v 5.925964 1.813384 3.399966
v 5.973026 1.752751 3.345522
v 5.658330 1.030154 3.143737
v 5.761918 1.030154 3.247324
v 5.658330 1.059248 3.143737
v 5.761918 1.059248 3.247324
v 6.003657 1.030154 3.143737
v 5.900069 1.030154 3.247324
v 6.003657 1.059248 3.143737
v 5.900069 1.059248 3.247324
v 5.658330 1.059248 3.005585
v 5.761918 1.059248 2.901998
v 5.658330 1.030154 3.005585
v 5.761918 1.030154 2.901998
v 5.900069 1.059248 2.901998
v 6.003657 1.059248 3.005585
v 6.003657 1.030154 3.005585
v 5.900069 1.030154 2.901998
v 5.791427 1.092286 3.173564
v 5.732090 1.092286 3.114228
v 5.870561 1.092286 3.173564
v 5.929896 1.092286 3.114228
v 5.929896 1.092286 3.035094
v 5.870561 1.092286 2.975758
v 5.791427 1.092286 2.975758
v 5.732090 1.092286 3.035094
v 5.830994 1.092286 3.074661
v 5.880445 1.092286 3.054877
v 5.850777 1.092286 3.025209
v 5.905171 1.092286 3.044986
v 5.900229 1.092286 3.005426
v 5.860669 1.092286 3.000484
v 5.888209 1.474665 3.006852
v 5.853740 1.470632 3.001223
v 5.845295 1.466917 3.025627
v 5.871319 1.467236 3.055660
v 5.892776 1.471110 3.046273
v 5.894642 1.523868 3.012505
v 5.860391 1.521446 3.007375
v 5.851025 1.510858 3.029860
v 5.875910 1.502693 3.057477
v 5.897718 1.509198 3.048799
v 5.900643 1.566932 3.028440
v 5.866537 1.565103 3.024259
v 5.856427 1.551179 3.044569
v 5.880423 1.539085 3.069060
v 5.902531 1.546961 3.060996
v 5.905254 1.611444 3.048344
v 5.871148 1.611195 3.043787
v 5.861038 1.591039 3.057933
v 5.885035 1.569190 3.082780
v 5.907143 1.581335 3.071842
v 5.905254 1.649296 3.064911
v 5.871148 1.649185 3.060348
v 5.861038 1.628608 3.073874
v 5.885035 1.608142 3.091962
v 5.907143 1.618485 3.087481
v 5.905254 1.686314 3.086969
v 5.871148 1.685854 3.082428
v 5.861038 1.666376 3.097493
v 5.885035 1.647358 3.117099
v 5.907143 1.657327 3.111837
v 5.905254 1.722567 3.108817
v 5.871148 1.722107 3.104276
v 5.861038 1.702629 3.119341
v 5.885035 1.683611 3.138947
v 5.907143 1.693580 3.133686
v 5.905254 1.759320 3.147456
v 5.871148 1.757497 3.150135
v 5.861038 1.737491 3.153094
v 5.885035 1.714461 3.167781
v 5.907143 1.725376 3.164963
v 5.905254 1.787722 3.190458
v 5.871148 1.788919 3.186053
v 5.861038 1.765337 3.193141
v 5.885035 1.740558 3.204633
v 5.907143 1.751750 3.203291
v 5.905254 1.818527 3.209544
v 5.871148 1.818360 3.204983
v 5.861038 1.797951 3.218761
v 5.885035 1.777709 3.237100
v 5.907143 1.787997 3.232492
vt 0.573127 0.870362
vt 0.573127 0.870362
vt 0.573744 0.947133
vt 0.573744 0.947133
vt 0.561611 0.870408
vt 0.562228 0.947180
vt 0.550095 0.870456
vt 0.550712 0.947226
vt 0.550095 0.870456
vt 0.550712 0.947226
vt 0.561611 0.870408
vt 0.562228 0.947180
vt 0.700679 0.649511
vt 0.700707 0.649511
vt 0.682541 0.649584
vt 0.682512 0.649584
vt 0.664374 0.649658
vt 0.664402 0.649658
vt 0.682569 0.649583
vt 0.564163 0.982731
vt 0.581522 0.841541
vt 0.581522 0.841541
vt 0.561438 0.841623
vt 0.541355 0.841704
vt 0.541355 0.841704
vt 0.561438 0.841623
vt 0.590906 0.793287
vt 0.590906 0.793287
vt 0.561311 0.793406
vt 0.531716 0.793526
vt 0.531716 0.793526
vt 0.561311 0.793406
vt 0.589721 0.732269
vt 0.589721 0.732269
vt 0.560126 0.732389
vt 0.530532 0.732509
vt 0.530532 0.732509
vt 0.560126 0.732389
vt 0.588915 0.715425
vt 0.588871 0.715426
vt 0.560243 0.715542
vt 0.531661 0.715658
vt 0.531705 0.715658
vt 0.560333 0.715542
vt 0.706762 0.531786
vt 0.706724 0.531785
vt 0.681921 0.531886
vt 0.657158 0.531987
vt 0.657197 0.531986
vt 0.681999 0.531886
vt 0.707833 0.558331
vt 0.707795 0.558331
vt 0.682993 0.558432
vt 0.658229 0.558532
vt 0.658268 0.558532
vt 0.683070 0.558431
vt 0.709131 0.609666
vt 0.709092 0.609666
vt 0.684290 0.609766
vt 0.659527 0.609866
vt 0.659565 0.609867
vt 0.684368 0.609766
vt 0.586929 0.966074
vt 0.586929 0.972706
vt 0.586929 0.972706
vt 0.586929 0.966074
vt 0.546779 0.972706
vt 0.546779 0.966074
vt 0.546779 0.966074
vt 0.546779 0.972706
vt 0.574885 0.966074
vt 0.574885 0.972706
vt 0.558823 0.972706
vt 0.558823 0.966074
vt 0.558823 0.966074
vt 0.558823 0.972706
vt 0.574885 0.972706
vt 0.574885 0.966074
vt 0.571454 0.958543
vt 0.578353 0.958543
vt 0.566854 0.958543
vt 0.578353 0.958543
vt 0.571454 0.958543
vt 0.562253 0.958543
vt 0.643745 0.605161
vt 0.555355 0.958543
vt 0.555355 0.958543
vt 0.562253 0.958543
vt 0.646045 0.605161
vt 0.649495 0.605161
vt 0.648345 0.605161
vt 0.667477 0.526544
vt 0.666947 0.526562
vt 0.670146 0.529849
vt 0.643170 0.605161
vt 0.643256 0.564204
vt 0.643911 0.563767
vt 0.646094 0.564606
vt 0.649586 0.564571
vt 0.648494 0.564152
vt 0.643971 0.558703
vt 0.644568 0.558441
vt 0.646586 0.559849
vt 0.649797 0.560733
vt 0.648788 0.560029
vt 0.645935 0.553977
vt 0.646421 0.553779
vt 0.648296 0.555485
vt 0.651144 0.556794
vt 0.650206 0.555941
vt 0.648205 0.548988
vt 0.648735 0.548961
vt 0.649850 0.551170
vt 0.652739 0.553535
vt 0.651467 0.552220
vt 0.650131 0.544875
vt 0.650661 0.544863
vt 0.651703 0.547103
vt 0.653806 0.549318
vt 0.653285 0.548198
vt 0.652698 0.540906
vt 0.653226 0.540856
vt 0.654449 0.543014
vt 0.656729 0.545073
vt 0.656117 0.543994
vt 0.655238 0.536981
vt 0.655766 0.536931
vt 0.656990 0.539090
vt 0.659269 0.541149
vt 0.658657 0.540069
vt 0.660570 0.533150
vt 0.660259 0.532953
vt 0.660914 0.535316
vt 0.662622 0.537809
vt 0.662294 0.536627
vt 0.664746 0.529749
vt 0.665258 0.529878
vt 0.665570 0.532302
vt 0.666906 0.534984
vt 0.666751 0.533772
vt 0.668549 0.528771
vt 0.670681 0.530962
vt 0.558804 0.958543
vt 0.558229 0.958543
vt 0.563404 0.958543
vt 0.564554 0.958543
vt 0.561104 0.958543
vt 0.560327 0.715542
vt 0.585090 0.715442
vt 0.535525 0.715642
vt 0.535486 0.715643
vt 0.560249 0.715542
vt 0.585051 0.715441
vn 0.500000 -0.644368 -0.578610
vn -0.499999 -0.644368 -0.578610
vn -0.497448 -0.539343 -0.679451
vn 0.497448 -0.539345 -0.679450
vn -1.000000 -0.000006 -0.000000
vn -0.987024 0.111692 -0.115363
vn -0.500000 0.644366 0.578613
vn -0.489854 0.752019 0.441034
vn 0.499998 0.644369 0.578611
vn 0.489851 0.752021 0.441033
vn 1.000000 -0.000001 -0.000001
vn 0.987024 0.111695 -0.115361
vn 0.356666 -0.043134 0.933236
vn -0.355483 -0.043288 0.933680
vn -0.000001 -0.668122 0.744052
vn 0.735855 -0.471836 0.485682
vn 0.376088 -0.926541 0.008948
vn -0.377427 -0.925998 0.008803
vn -0.736013 -0.473377 0.483941
vn 0.000002 0.643641 -0.765327
vn -0.354410 0.015617 -0.934960
vn 0.354410 0.015617 -0.934960
vn 0.403613 -0.122652 -0.906672
vn -0.403612 -0.122651 -0.906672
vn -0.709918 0.471154 -0.523479
vn -0.809941 0.393403 -0.435005
vn -0.355501 0.928094 -0.110727
vn -0.406295 0.912875 0.039806
vn 0.355503 0.928093 -0.110727
vn 0.406294 0.912875 0.039805
vn 0.709920 0.471152 -0.523478
vn 0.809941 0.393402 -0.435006
vn 0.484717 -0.487774 -0.726035
vn -0.484717 -0.487774 -0.726035
vn -0.974104 0.144721 -0.173714
vn -0.489241 0.783250 0.383617
vn 0.489241 0.783250 0.383617
vn 0.974105 0.144721 -0.173713
vn 0.504273 -0.676942 -0.536152
vn -0.504775 -0.677511 -0.534959
vn -0.999117 -0.018797 0.037574
vn -0.494630 0.629193 0.599547
vn 0.495159 0.628193 0.600159
vn 0.999096 -0.017936 0.038543
vn 0.487910 -0.739640 -0.463549
vn -0.486259 -0.743557 -0.458994
vn -0.980439 -0.140989 0.137334
vn -0.492612 0.468622 0.733299
vn 0.490712 0.464241 0.737348
vn 0.980487 -0.142974 0.134918
vn 0.000000 -0.668128 0.744046
vn 0.000000 -0.668128 0.744046
vn 0.000000 -0.668128 0.744046
vn 0.000000 -0.668128 0.744046
vn -0.000001 -0.668129 0.744046
vn -0.000001 -0.668129 0.744046
vn -0.000001 -0.668129 0.744046
vn -0.000001 -0.668129 0.744046
vn 0.000003 -0.668118 0.744055
vn 0.000003 -0.668118 0.744055
vn 0.000003 -0.668118 0.744055
vn 0.000003 -0.668118 0.744055
vn 0.000000 -0.668113 0.744060
vn 0.000000 -0.668113 0.744060
vn 0.000000 -0.668113 0.744060
vn 0.000000 -0.668113 0.744060
vn 0.000000 -0.668122 0.744052
vn 0.000000 -0.668122 0.744052
vn 0.000000 -0.668122 0.744052
vn 0.000000 -0.668122 0.744052
vn 0.000005 -0.668113 0.744060
vn 0.000005 -0.668113 0.744060
vn 0.000005 -0.668113 0.744060
vn 0.000005 -0.668113 0.744060
vn 0.511829 0.689757 0.512119
vn -0.510675 0.690308 0.512529
vn -0.499218 0.680542 0.536325
vn 0.500407 0.680004 0.535899
vn 0.999597 -0.022789 -0.016922
vn 0.999999 0.001054 0.000264
vn 0.484999 -0.702143 -0.521317
vn 0.498912 -0.680955 -0.536086
vn -0.486229 -0.701595 -0.520909
vn -0.500104 -0.680414 -0.535661
vn -0.999520 -0.024877 -0.018471
vn -0.999999 -0.000990 -0.001344
vn -0.476144 0.491890 0.728925
vn 0.477263 0.491648 0.728356
vn 0.850224 0.238549 0.469269
vn 0.856164 -0.470188 -0.214256
vn 0.504010 -0.748874 -0.430304
vn -0.505062 -0.748217 -0.430214
vn -0.855603 -0.470695 -0.215384
vn -0.850763 0.237360 0.468896
vn 0.000000 0.000000 1.000000
vn 0.000000 0.000000 1.000000
vn 0.000000 0.000000 1.000000
vn 0.000000 0.000000 1.000000
vn 0.000000 0.000000 -1.000000
vn 0.000000 0.000000 -1.000000
vn 0.000000 0.000000 -1.000000
vn 0.000000 0.000000 -1.000000
vn 1.000000 0.000000 0.000000
vn 1.000000 0.000000 0.000000
vn 1.000000 0.000000 0.000000
vn 1.000000 0.000000 0.000000
vn -1.000000 0.000000 0.000000
vn -1.000000 0.000000 0.000000
vn -1.000000 0.000000 0.000000
vn -1.000000 0.000000 0.000000
vn 0.000000 1.000000 0.000000
vn 0.000000 1.000000 0.000000
vn 0.000000 1.000000 0.000000
vn -0.707105 0.000000 0.707109
vn -0.707105 0.000000 0.707109
vn -0.707105 0.000000 0.707109
vn -0.707105 0.000000 0.707109
vn 0.707107 0.000000 0.707107
vn 0.707107 0.000000 0.707107
vn 0.707107 0.000000 0.707107
vn 0.707107 0.000000 0.707107
vn -0.707105 0.000000 -0.707109
vn -0.707105 0.000000 -0.707109
vn -0.707105 0.000000 -0.707109
vn -0.707105 0.000000 -0.707109
vn 0.707107 0.000000 -0.707107
vn 0.707107 0.000000 -0.707107
vn 0.707107 0.000000 -0.707107
vn 0.707107 0.000000 -0.707107
vn -0.291473 0.911091 0.291475
vn -0.291473 0.911091 0.291475
vn -0.291473 0.911091 0.291475
vn -0.291473 0.911091 0.291475
vn 0.000000 0.912635 0.408775
vn 0.000000 0.912635 0.408775
vn 0.000000 0.912635 0.408775
vn 0.000000 0.912635 0.408775
vn 0.291474 0.911091 0.291474
vn 0.291474 0.911091 0.291474
vn 0.291474 0.911091 0.291474
vn 0.291474 0.911091 0.291474
vn 0.408774 0.912636 0.000000
vn 0.408774 0.912636 0.000000
vn 0.408774 0.912636 0.000000
vn 0.408774 0.912636 0.000000
vn 0.291471 0.911092 -0.291473
vn 0.291471 0.911092 -0.291473
vn 0.291474 0.911090 -0.291476
vn 0.000000 0.912636 -0.408774
vn 0.000000 0.912636 -0.408774
vn 0.000000 0.912636 -0.408774
vn 0.000000 0.912636 -0.408774
vn -0.291473 0.911091 -0.291475
vn -0.291473 0.911091 -0.291475
vn -0.291473 0.911091 -0.291475
vn -0.291473 0.911091 -0.291475
vn -0.408774 0.912636 0.000000
vn -0.408774 0.912636 0.000000
vn -0.408774 0.912636 0.000000
vn -0.408774 0.912636 0.000000
vn 0.000000 1.000000 0.000000
vn 0.000000 1.000000 0.000000
vn 0.000000 1.000000 0.000000
vn 0.000000 1.000000 0.000000
vn 0.000000 1.000000 0.000000
vn 0.000000 1.000000 0.000000
vn 0.000000 1.000000 0.000000
vn 0.000000 1.000000 0.000000
vn 0.696248 0.658333 -0.286071
vn -0.352015 0.897651 -0.265157
vn 0.764070 0.066586 0.641687
vn 0.000000 1.000000 0.000000
vn 0.000000 1.000000 0.000000
vn 0.000000 1.000000 0.000000
vn 0.000000 1.000000 0.000000
vn 0.291471 0.911092 -0.291472
vn 0.291472 0.911092 -0.291472
vn 0.736407 0.024988 -0.676077
vn -0.375272 -0.002888 -0.926910
vn -0.344192 0.014163 -0.938792
vn 0.722822 0.021932 -0.690686
vn -0.946079 -0.017681 0.323455
vn -0.955193 -0.006152 0.295919
vn -0.359273 -0.007363 0.933204
vn -0.354264 -0.006283 0.935124
vn 0.939380 0.028630 0.341680
vn 0.952865 0.012809 0.303125
vn -0.381780 0.252434 -0.889113
vn 0.697650 0.088374 -0.710968
vn -0.967935 0.081190 0.237717
vn -0.403817 -0.118834 0.907089
vn 0.956027 -0.177740 0.233283
vn -0.388817 0.381638 -0.838555
vn 0.696079 0.194659 -0.691073
vn -0.961734 0.026139 0.272734
vn -0.377786 -0.266182 0.886806
vn 0.945781 -0.209111 0.248537
vn -0.336031 0.383469 -0.860253
vn 0.705133 0.256072 -0.661223
vn -0.967935 -0.017028 0.250623
vn -0.325907 -0.299489 0.896711
vn 0.942687 -0.166587 0.289119
vn -0.373698 0.428954 -0.822404
vn 0.728394 0.316800 -0.607519
vn -0.965780 -0.119591 0.230145
vn -0.350938 -0.385668 0.853289
vn 0.914964 -0.184028 0.359131
vn -0.398570 0.473128 -0.785679
vn 0.744782 0.343828 -0.571911
vn -0.960612 -0.146774 0.235970
vn -0.340835 -0.495746 0.798791
vn 0.912004 -0.215479 0.349023
vn -0.386008 0.607212 -0.694472
vn 0.678550 0.491256 -0.546111
vn -0.976121 -0.128426 0.175201
vn -0.359682 -0.561518 0.745202
vn 0.936658 -0.217321 0.274669
vn -0.411617 0.708516 -0.573216
vn 0.678654 0.571338 -0.461521
vn -0.976730 -0.163857 0.138382
vn -0.362443 -0.702769 0.612168
vn 0.940494 -0.261646 0.216824
vn -0.412725 0.633202 -0.654763
vn 0.780372 0.433178 -0.450974
vn -0.942007 -0.241478 0.233047
vn -0.332688 -0.708163 0.622755
vn 0.895811 -0.319053 0.309400
vn -0.810990 0.168609 0.560238
vn -0.291302 -0.245484 0.924598
s 1
g shelf_Wide:shelf_Wide:pCylinder1
usemtl lambert2SG
f 1/1/1 2/2/2 8/3/3 7/4/4
f 2/2/2 3/5/5 9/6/6 8/3/3
f 3/5/5 4/7/7 10/8/8 9/6/6
f 4/7/7 5/9/9 11/10/10 10/8/8
f 5/9/9 6/11/11 12/12/12 11/10/10
f 6/11/11 1/1/1 7/4/4 12/12/12
s 2
f 57/13/13 56/14/14 58/15/15
f 59/16/16 57/13/13 58/15/15
f 60/17/17 59/16/16 58/15/15
f 61/18/18 60/17/17 58/15/15
f 62/19/19 61/18/18 58/15/15
f 56/14/14 62/19/19 58/15/15
s 1
f 7/4/4 8/3/3 13/20/20
f 8/3/3 9/6/6 13/20/20
f 9/6/6 10/8/8 13/20/20
f 10/8/8 11/10/10 13/20/20
f 11/10/10 12/12/12 13/20/20
f 12/12/12 7/4/4 13/20/20
s 3
f 2/2/21 1/1/22 14/21/23 15/22/24
f 3/5/25 2/2/21 15/22/24 16/23/26
f 4/7/27 3/5/25 16/23/26 17/24/28
f 5/9/29 4/7/27 17/24/28 18/25/30
f 6/11/31 5/9/29 18/25/30 19/26/32
f 1/1/22 6/11/31 19/26/32 14/21/23
f 15/22/24 14/21/23 20/27/33 21/28/34
f 16/23/26 15/22/24 21/28/34 22/29/35
f 17/24/28 16/23/26 22/29/35 23/30/36
f 18/25/30 17/24/28 23/30/36 24/31/37
f 19/26/32 18/25/30 24/31/37 25/32/38
f 14/21/23 19/26/32 25/32/38 20/27/33
f 21/28/34 20/27/33 26/33/39 27/34/40
f 22/29/35 21/28/34 27/34/40 28/35/41
f 23/30/36 22/29/35 28/35/41 29/36/42
f 24/31/37 23/30/36 29/36/42 30/37/43
f 25/32/38 24/31/37 30/37/43 31/38/44
f 20/27/33 25/32/38 31/38/44 26/33/39
f 27/34/40 26/33/39 32/39/45 33/40/46
f 28/35/41 27/34/40 33/40/46 34/41/47
f 29/36/42 28/35/41 34/41/47 35/42/48
f 30/37/43 29/36/42 35/42/48 36/43/49
f 31/38/44 30/37/43 36/43/49 37/44/50
f 26/33/39 31/38/44 37/44/50 32/39/45
s off
f 33/40/51 32/39/52 38/149/53 39/153/54
f 34/41/55 33/40/56 39/153/57 40/152/58
f 35/42/59 34/41/60 40/152/61 41/151/62
f 36/43/63 35/42/64 41/151/65 42/150/66
f 37/44/67 36/43/68 42/150/69 43/148/70
f 32/39/71 37/44/72 43/148/73 38/149/74
s 2
f 39/46/75 38/45/76 44/51/77 45/52/78
f 40/47/79 39/46/75 45/52/78 46/53/80
f 41/48/81 40/47/79 46/53/80 47/54/82
f 42/49/83 41/48/81 47/54/82 48/55/84
f 43/50/85 42/49/83 48/55/84 49/56/86
f 38/45/76 43/50/85 49/56/86 44/51/77
f 45/52/78 44/51/77 50/57/87 51/58/88
f 46/53/80 45/52/78 51/58/88 52/59/89
f 47/54/82 46/53/80 52/59/90 53/60/91
f 48/55/84 47/54/82 53/60/91 54/61/92
f 49/56/86 48/55/84 54/61/92 55/62/93
f 44/51/77 49/56/86 55/62/94 50/57/87
f 51/58/88 50/57/87 56/14/14 57/13/13
f 52/59/89 51/58/88 57/13/13 59/16/16
f 53/60/91 52/59/90 59/16/16 60/17/17
f 54/61/92 53/60/91 60/17/17 61/18/18
f 55/62/93 54/61/92 61/18/18 62/19/19
f 50/57/87 55/62/94 62/19/19 56/14/14
s off
f 66/63/95 64/64/96 68/65/97 70/66/98
f 74/67/99 72/68/100 75/69/101 78/70/102
f 69/71/103 67/72/104 77/73/105 76/74/106
f 71/75/107 73/76/108 63/77/109 65/78/110
s 5
f 80/79/111 79/80/112 87/81/113
s off
f 63/77/114 64/64/115 66/63/116 65/78/117
f 68/65/118 67/72/119 69/71/120 70/66/121
f 71/75/122 72/68/123 74/67/124 73/76/125
f 75/69/126 76/74/127 77/73/128 78/70/129
f 65/78/130 66/63/131 79/80/132 80/79/133
f 66/63/134 70/66/135 81/82/136 79/80/137
f 70/66/138 69/71/139 82/83/140 81/82/141
f 69/71/142 76/74/143 83/84/144 82/83/145
s 6
f 91/143/146 75/69/147 84/86/148
s off
f 75/69/149 72/68/150 85/87/151 84/86/152
f 72/68/153 71/75/154 86/88/155 85/87/156
f 71/75/157 65/78/158 80/79/159 86/88/160
s 5
f 82/83/161 87/81/113 81/82/162
f 85/87/163 87/81/113 89/147/164
f 86/88/165 87/81/113 85/87/163
f 87/81/113 79/80/112 81/82/162
f 82/83/161 88/146/166 87/81/113
f 88/146/166 89/147/164 87/81/113
f 80/79/111 87/81/113 86/88/165
f 83/84/167 90/145/168 82/83/161
s 10
f 138/92/169 139/93/170 142/94/171
s 5
f 85/87/163 89/147/164 92/144/172
f 91/143/173 90/145/168 83/84/167
f 84/86/174 92/144/172 91/143/175
f 85/87/163 92/144/172 84/86/174
f 82/83/161 90/145/168 88/146/166
s 6
f 76/74/176 91/143/146 83/84/177
f 76/74/176 75/69/147 91/143/146
s 10
f 91/85/178 92/95/179 94/96/180 93/97/181
f 92/95/179 89/89/182 95/98/183 94/96/180
f 89/89/182 88/90/184 96/99/185 95/98/183
f 88/90/184 90/91/186 97/100/187 96/99/185
f 90/91/186 91/85/178 93/97/181 97/100/187
f 93/97/181 94/96/180 99/101/188 98/102/189
f 94/96/180 95/98/183 100/103/190 99/101/188
f 95/98/183 96/99/185 101/104/191 100/103/190
f 96/99/185 97/100/187 102/105/192 101/104/191
f 97/100/187 93/97/181 98/102/189 102/105/192
f 98/102/189 99/101/188 104/106/193 103/107/194
f 99/101/188 100/103/190 105/108/195 104/106/193
f 100/103/190 101/104/191 106/109/196 105/108/195
f 101/104/191 102/105/192 107/110/197 106/109/196
f 102/105/192 98/102/189 103/107/194 107/110/197
f 103/107/194 104/106/193 109/111/198 108/112/199
f 104/106/193 105/108/195 110/113/200 109/111/198
f 105/108/195 106/109/196 111/114/201 110/113/200
f 106/109/196 107/110/197 112/115/202 111/114/201
f 107/110/197 103/107/194 108/112/199 112/115/202
f 108/112/199 109/111/198 114/116/203 113/117/204
f 109/111/198 110/113/200 115/118/205 114/116/203
f 110/113/200 111/114/201 116/119/206 115/118/205
f 111/114/201 112/115/202 117/120/207 116/119/206
f 112/115/202 108/112/199 113/117/204 117/120/207
f 113/117/204 114/116/203 119/121/208 118/122/209
f 114/116/203 115/118/205 120/123/210 119/121/208
f 115/118/205 116/119/206 121/124/211 120/123/210
f 116/119/206 117/120/207 122/125/212 121/124/211
f 117/120/207 113/117/204 118/122/209 122/125/212
f 118/122/209 119/121/208 124/126/213 123/127/214
f 119/121/208 120/123/210 125/128/215 124/126/213
f 120/123/210 121/124/211 126/129/216 125/128/215
f 121/124/211 122/125/212 127/130/217 126/129/216
f 122/125/212 118/122/209 123/127/214 127/130/217
f 123/127/214 124/126/213 129/131/218 128/132/219
f 124/126/213 125/128/215 130/133/220 129/131/218
f 125/128/215 126/129/216 131/134/221 130/133/220
f 126/129/216 127/130/217 132/135/222 131/134/221
f 127/130/217 123/127/214 128/132/219 132/135/222
f 128/132/219 129/131/218 134/136/223 133/137/224
f 129/131/218 130/133/220 135/138/225 134/136/223
f 130/133/220 131/134/221 136/139/226 135/138/225
f 131/134/221 132/135/222 137/140/227 136/139/226
f 132/135/222 128/132/219 133/137/224 137/140/227
f 133/137/224 134/136/223 139/93/170 138/92/169
f 134/136/223 135/138/225 140/141/228 139/93/170
f 135/138/225 136/139/226 141/142/229 140/141/228
f 136/139/226 137/140/227 142/94/171 141/142/229
f 137/140/227 133/137/224 138/92/169 142/94/171
f 142/94/171 139/93/170 140/141/228 141/142/229
