# This file uses centimeters as units for non-parametric coordinates.

mtllib tableOffice.mtl
g default
v 4.914612 0.913727 3.396271
v 7.762451 0.913727 3.396271
v 4.914612 1.009811 3.396271
v 7.762451 1.009811 3.396271
v 4.914612 1.009811 1.859238
v 7.762451 1.009811 1.859238
v 4.914612 0.913727 1.859238
v 7.762451 0.913727 1.859238
v 5.044861 0.913727 3.396271
v 7.632202 0.913727 3.396271
v 7.632202 1.009811 3.396271
v 5.044861 1.009811 3.396271
v 7.632202 1.009811 1.859238
v 5.044861 1.009811 1.859238
v 7.632202 0.913727 1.859238
v 5.044861 0.913727 1.859238
v 5.044861 1.009811 3.266022
v 7.632202 1.009811 3.266022
v 7.632202 1.009811 1.989487
v 5.044861 1.009811 1.989487
v 5.044861 0.913727 1.989487
v 7.632202 0.913727 1.989487
v 7.632202 0.913727 3.266022
v 5.044861 0.913727 3.266022
v 5.163086 0.913727 3.396271
v 5.163086 0.913727 3.266022
v 5.163086 0.913727 1.989487
v 5.163086 0.913727 1.859238
v 5.163086 1.009811 1.859238
v 5.163086 1.009811 1.989487
v 5.163086 1.009811 3.266022
v 5.163086 1.009811 3.396271
v 7.511536 0.913727 3.396271
v 7.511536 1.009811 3.396271
v 7.511536 1.009811 3.266022
v 7.511536 1.009811 1.989487
v 7.511536 1.009811 1.859238
v 7.511536 0.913727 1.859238
v 7.511536 0.913727 1.989487
v 7.511536 0.913727 3.266022
v 5.044861 0.389017 1.989487
v 5.163086 0.389017 1.989487
v 5.163086 0.389017 3.266022
v 5.044861 0.389017 3.266022
v 7.511536 0.835030 1.989487
v 7.511536 0.835030 3.266022
v 7.632202 0.835030 1.989487
v 7.632202 0.835030 3.266022
v 5.044861 -0.004443 1.989487
v 5.163086 -0.004443 1.989487
v 5.163086 -0.004443 3.266022
v 5.044861 -0.004443 3.266022
v 7.511536 0.022610 1.989487
v 7.511536 0.022610 3.266022
v 7.632202 0.022610 1.989487
v 7.632202 0.022610 3.266022
v 7.511536 0.022610 2.028564
v 7.511536 0.022610 3.226959
v 7.632202 0.022610 2.028564
v 7.632202 0.022610 3.226959
v 7.511536 0.795956 2.028564
v 7.511536 0.795956 3.226959
v 7.632202 0.795956 2.028564
v 7.632202 0.795956 3.226959
vt 0.399721 0.595329
vt 0.399721 0.586916
vt 0.399721 0.586916
vt 0.399721 0.595329
vt 0.480999 0.595329
vt 0.407246 0.595329
vt 0.407246 0.595329
vt 0.480999 0.595329
vt 0.488524 0.586916
vt 0.488524 0.595329
vt 0.488524 0.595329
vt 0.488524 0.586916
vt 0.407246 0.879659
vt 0.480999 0.879659
vt 0.480999 0.879659
vt 0.407246 0.879659
vt 0.399721 0.586916
vt 0.488524 0.586916
vt 0.488524 0.595329
vt 0.399721 0.595329
vt 0.488524 0.586916
vt 0.399721 0.586916
vt 0.399721 0.595329
vt 0.488524 0.595329
vt 0.399721 0.595329
vt 0.399721 0.586916
vt 0.399721 0.586916
vt 0.399721 0.595329
vt 0.407246 0.595329
vt 0.480999 0.595329
vt 0.480999 0.595329
vt 0.407246 0.595329
vt 0.488524 0.586916
vt 0.488524 0.595329
vt 0.488524 0.595329
vt 0.488524 0.586916
vt 0.480999 0.879659
vt 0.407246 0.879659
vt 0.407246 0.879659
vt 0.480999 0.879659
vt 0.480999 0.718674
vt 0.480999 0.718674
vt 0.407246 0.718674
vt 0.407246 0.718674
vt 0.480999 0.787660
vt 0.480999 0.787660
vt 0.407246 0.787660
vt 0.407246 0.787660
vt 0.480999 0.865860
vt 0.407246 0.865860
vt 0.480999 0.865860
vt 0.407246 0.865860
vt 0.409504 0.723417
vt 0.478741 0.723417
vt 0.478741 0.723417
vt 0.409504 0.723417
vt 0.409504 0.859010
vt 0.478741 0.859010
vt 0.480999 0.723417
vt 0.480999 0.723417
vt 0.478741 0.859010
vt 0.409504 0.859010
vt 0.407246 0.723417
vt 0.407246 0.723417
vt 0.407246 0.586916
vt 0.407246 0.586916
vt 0.480999 0.586916
vt 0.480999 0.586916
vt 0.480999 0.586916
vt 0.480999 0.586916
vt 0.407246 0.586916
vt 0.407246 0.586916
vn 0.000000 0.000000 1.000000
vn 0.000000 0.000000 1.000000
vn 0.000000 0.000000 1.000000
vn 0.000000 0.000000 1.000000
vn 0.000000 1.000000 0.000000
vn 0.000000 1.000000 0.000000
vn 0.000000 1.000000 0.000000
vn 0.000000 1.000000 0.000000
vn 0.000000 0.000000 -1.000000
vn 0.000000 0.000000 -1.000000
vn 0.000000 0.000000 -1.000000
vn 0.000000 0.000000 -1.000000
vn -0.000000 -1.000000 0.000000
vn -0.000000 -1.000000 0.000000
vn -0.000000 -1.000000 0.000000
vn -0.000000 -1.000000 0.000000
vn 1.000000 0.000000 0.000000
vn 1.000000 0.000000 0.000000
vn 1.000000 0.000000 0.000000
vn 1.000000 0.000000 0.000000
vn -1.000000 0.000000 0.000000
vn -1.000000 0.000000 0.000000
vn -1.000000 0.000000 0.000000
vn -1.000000 0.000000 0.000000
vn 0.000000 0.000000 1.000000
vn 0.000000 0.000000 1.000000
vn 0.000000 0.000000 1.000000
vn 0.000000 0.000000 1.000000
vn 0.000000 0.000000 1.000000
vn 0.000000 0.000000 1.000000
vn 0.000000 0.000000 1.000000
vn 0.000000 0.000000 1.000000
vn 0.000000 0.000000 -1.000000
vn 0.000000 0.000000 -1.000000
vn 0.000000 0.000000 -1.000000
vn 0.000000 0.000000 -1.000000
vn 0.000000 0.000000 -1.000000
vn 0.000000 0.000000 -1.000000
vn 0.000000 0.000000 -1.000000
vn 0.000000 0.000000 -1.000000
vn 0.000000 1.000000 0.000000
vn 0.000000 1.000000 0.000000
vn 0.000000 1.000000 0.000000
vn 0.000000 1.000000 0.000000
vn 0.000000 1.000000 0.000000
vn 0.000000 1.000000 0.000000
vn 0.000000 1.000000 0.000000
vn 0.000000 1.000000 0.000000
vn 0.000000 1.000000 0.000000
vn 0.000000 1.000000 0.000000
vn 0.000000 1.000000 0.000000
vn 0.000000 1.000000 0.000000
vn 0.000000 1.000000 0.000000
vn 0.000000 1.000000 0.000000
vn 0.000000 1.000000 0.000000
vn 0.000000 1.000000 0.000000
vn 0.000000 1.000000 0.000000
vn 0.000000 1.000000 0.000000
vn 0.000000 1.000000 0.000000
vn 0.000000 1.000000 0.000000
vn 0.000000 1.000000 0.000000
vn 0.000000 1.000000 0.000000
vn 0.000000 1.000000 0.000000
vn 0.000000 1.000000 0.000000
vn 0.000000 1.000000 0.000000
vn 0.000000 1.000000 0.000000
vn 0.000000 1.000000 0.000000
vn 0.000000 1.000000 0.000000
vn -0.000000 -1.000000 0.000000
vn -0.000000 -1.000000 0.000000
vn -0.000000 -1.000000 0.000000
vn -0.000000 -1.000000 0.000000
vn -0.000000 -1.000000 0.000000
vn -0.000000 -1.000000 0.000000
vn -0.000000 -1.000000 0.000000
vn -0.000000 -1.000000 0.000000
vn -0.000000 -1.000000 0.000000
vn -0.000000 -1.000000 0.000000
vn -0.000000 -1.000000 0.000000
vn -0.000000 -1.000000 0.000000
vn -0.000000 -1.000000 0.000000
vn -0.000000 -1.000000 0.000000
vn -0.000000 -1.000000 0.000000
vn -0.000000 -1.000000 0.000000
vn -0.000000 -1.000000 0.000000
vn -0.000000 -1.000000 0.000000
vn -0.000000 -1.000000 0.000000
vn -0.000000 -1.000000 0.000000
vn -0.000000 -1.000000 0.000000
vn -0.000000 -1.000000 0.000000
vn -0.000000 -1.000000 0.000000
vn -0.000000 -1.000000 0.000000
vn -0.000000 -1.000000 0.000000
vn -0.000000 -1.000000 0.000000
vn -0.000000 -1.000000 0.000000
vn -0.000000 -1.000000 0.000000
vn -0.000000 -1.000000 0.000000
vn -0.000000 -1.000000 0.000000
vn -0.000000 -1.000000 0.000000
vn -0.000000 -1.000000 0.000000
vn -0.000000 -1.000000 0.000000
vn -0.000000 -1.000000 0.000000
vn -0.000000 -1.000000 0.000000
vn -0.000000 -1.000000 0.000000
vn -0.000000 -1.000000 0.000000
vn -0.000000 -1.000000 0.000000
vn -0.000000 -1.000000 0.000000
vn -0.000000 -1.000000 0.000000
vn 0.000000 0.000000 -1.000000
vn 0.000000 0.000000 -1.000000
vn 0.000000 0.000000 -1.000000
vn 0.000000 0.000000 -1.000000
vn 0.000000 1.000000 0.000000
vn 0.000000 1.000000 0.000000
vn 0.000000 1.000000 0.000000
vn 0.000000 1.000000 0.000000
vn 0.000000 1.000000 0.000000
vn 0.000000 1.000000 0.000000
vn 0.000000 1.000000 0.000000
vn 0.000000 1.000000 0.000000
vn 0.000000 1.000000 0.000000
vn 0.000000 1.000000 0.000000
vn 0.000000 1.000000 0.000000
vn 0.000000 1.000000 0.000000
vn 0.000000 0.000000 1.000000
vn 0.000000 0.000000 1.000000
vn 0.000000 0.000000 1.000000
vn 0.000000 0.000000 1.000000
vn 0.000000 0.000000 1.000000
vn 0.000000 0.000000 1.000000
vn 0.000000 0.000000 1.000000
vn 0.000000 0.000000 1.000000
vn 0.000000 1.000000 0.000000
vn 0.000000 1.000000 0.000000
vn 0.000000 1.000000 0.000000
vn 0.000000 1.000000 0.000000
vn 0.000000 1.000000 0.000000
vn 0.000000 1.000000 0.000000
vn 0.000000 1.000000 0.000000
vn 0.000000 1.000000 0.000000
vn 0.000000 1.000000 0.000000
vn 0.000000 1.000000 0.000000
vn 0.000000 1.000000 0.000000
vn 0.000000 1.000000 0.000000
vn 0.000000 0.000000 -1.000000
vn 0.000000 0.000000 -1.000000
vn 0.000000 0.000000 -1.000000
vn 0.000000 0.000000 -1.000000
vn -0.000000 -1.000000 0.000000
vn -0.000000 -1.000000 0.000000
vn -0.000000 -1.000000 0.000000
vn -0.000000 -1.000000 0.000000
vn -0.000000 -1.000000 0.000000
vn -0.000000 -1.000000 0.000000
vn -0.000000 -1.000000 0.000000
vn -0.000000 -1.000000 0.000000
vn 0.000000 0.000000 -1.000000
vn 0.000000 0.000000 -1.000000
vn 0.000000 0.000000 -1.000000
vn 0.000000 0.000000 -1.000000
vn 1.000000 0.000000 0.000000
vn 1.000000 0.000000 0.000000
vn 1.000000 0.000000 0.000000
vn 1.000000 0.000000 0.000000
vn 0.000000 0.000000 1.000000
vn 0.000000 0.000000 1.000000
vn 0.000000 0.000000 1.000000
vn 0.000000 0.000000 1.000000
vn -1.000000 0.000000 0.000000
vn -1.000000 0.000000 0.000000
vn -1.000000 0.000000 0.000000
vn -1.000000 0.000000 0.000000
vn -1.000000 0.000000 0.000000
vn -1.000000 0.000000 0.000000
vn -1.000000 0.000000 0.000000
vn -1.000000 0.000000 0.000000
vn 0.000000 0.000000 -1.000000
vn 0.000000 0.000000 -1.000000
vn 0.000000 0.000000 -1.000000
vn 0.000000 0.000000 -1.000000
vn 1.000000 0.000000 0.000000
vn 1.000000 0.000000 0.000000
vn 1.000000 0.000000 0.000000
vn 1.000000 0.000000 0.000000
vn 0.000000 0.000000 1.000000
vn 0.000000 0.000000 1.000000
vn 0.000000 0.000000 1.000000
vn 0.000000 0.000000 1.000000
vn 0.000000 0.000000 -1.000000
vn 0.000000 0.000000 -1.000000
vn 0.000000 0.000000 -1.000000
vn 0.000000 0.000000 -1.000000
vn 1.000000 0.000000 0.000000
vn 1.000000 0.000000 0.000000
vn 1.000000 0.000000 0.000000
vn 1.000000 0.000000 0.000000
vn 0.000000 0.000000 1.000000
vn 0.000000 0.000000 1.000000
vn 0.000000 0.000000 1.000000
vn 0.000000 0.000000 1.000000
vn -1.000000 0.000000 0.000000
vn -1.000000 0.000000 0.000000
vn -1.000000 0.000000 0.000000
vn -1.000000 0.000000 0.000000
vn -0.000000 -1.000000 0.000000
vn -0.000000 -1.000000 0.000000
vn -0.000000 -1.000000 0.000000
vn -0.000000 -1.000000 0.000000
vn -1.000000 0.000000 0.000000
vn -1.000000 0.000000 0.000000
vn -1.000000 0.000000 0.000000
vn -1.000000 0.000000 0.000000
vn 0.000000 0.000000 -1.000000
vn 0.000000 0.000000 -1.000000
vn 0.000000 0.000000 -1.000000
vn 0.000000 0.000000 -1.000000
vn 1.000000 0.000000 0.000000
vn 1.000000 0.000000 0.000000
vn 1.000000 0.000000 0.000000
vn 1.000000 0.000000 0.000000
vn 0.000000 0.000000 1.000000
vn 0.000000 0.000000 1.000000
vn 0.000000 0.000000 1.000000
vn 0.000000 0.000000 1.000000
vn -0.000000 -1.000000 0.000000
vn -0.000000 -1.000000 0.000000
vn -0.000000 -1.000000 0.000000
vn -0.000000 -1.000000 0.000000
vn -0.000000 -1.000000 0.000000
vn -0.000000 -1.000000 0.000000
vn -0.000000 -1.000000 0.000000
vn -0.000000 -1.000000 0.000000
vn -1.000000 0.000000 0.000000
vn -1.000000 0.000000 0.000000
vn -1.000000 0.000001 0.000000
vn -1.000000 0.000001 0.000000
vn -1.000000 0.000000 0.000000
vn -1.000000 0.000000 0.000000
vn -1.000000 0.000000 0.000000
vn -1.000000 0.000001 0.000000
vn -1.000000 0.000000 0.000000
vn -1.000000 0.000000 0.000000
vn -1.000000 0.000001 0.000000
vn -1.000000 0.000000 0.000000
vn 1.000000 0.000000 0.000000
vn 1.000000 0.000000 0.000000
vn 1.000000 0.000000 0.000000
vn 1.000000 0.000000 0.000000
vn 1.000000 0.000000 0.000000
vn 1.000000 0.000000 0.000000
vn 1.000000 0.000000 0.000000
vn 1.000000 0.000000 0.000000
vn 1.000000 0.000000 0.000000
vn 1.000000 0.000000 0.000000
vn 1.000000 0.000000 0.000000
vn 1.000000 0.000000 0.000000
vn -1.000000 0.000000 0.000000
vn -1.000000 0.000000 0.000000
vn -1.000000 0.000001 0.000000
vn -1.000000 0.000001 0.000000
vn -1.000000 0.000000 0.000000
vn -1.000000 0.000000 0.000000
vn -1.000000 0.000000 0.000000
vn -1.000000 0.000001 0.000000
vn -1.000000 0.000000 0.000000
vn -1.000000 0.000000 0.000000
vn -1.000000 0.000001 0.000000
vn -1.000000 0.000000 0.000000
vn 1.000000 0.000000 0.000000
vn 1.000000 0.000000 0.000000
vn 1.000000 0.000000 0.000000
vn 1.000000 0.000000 0.000000
vn 1.000000 0.000000 0.000000
vn 1.000000 0.000000 0.000000
vn 1.000000 0.000000 0.000000
vn 1.000000 0.000000 0.000000
vn 1.000000 0.000000 0.000000
vn 1.000000 0.000000 0.000000
vn 1.000000 0.000000 0.000000
vn 1.000000 0.000000 0.000000
vn 0.000000 1.000000 0.000000
vn 0.000000 1.000000 0.000000
vn 0.000000 1.000000 0.000000
vn 0.000000 1.000000 0.000000
vn 0.000000 0.000000 -1.000000
vn 0.000000 0.000000 -1.000000
vn 0.000000 0.000000 -1.000000
vn 0.000000 0.000000 -1.000000
vn -0.000000 -1.000000 0.000000
vn -0.000000 -1.000000 0.000000
vn -0.000000 -1.000000 0.000000
vn -0.000000 -1.000000 0.000000
vn 0.000000 0.000000 1.000000
vn 0.000000 0.000000 1.000000
vn 0.000000 0.000000 1.000000
vn 0.000000 0.000000 1.000000
s off
g table__1_:tablePlain
usemtl lambert2SG
f 32/1/1 25/2/2 33/3/3 34/4/4
f 30/5/5 31/6/6 35/7/7 36/8/8
f 28/9/9 29/10/10 37/11/11 38/12/12
f 26/72/13 27/69/14 39/68/15 40/65/16
f 2/17/17 8/18/18 6/19/19 4/20/20
f 7/21/21 1/22/22 3/23/23 5/24/24
f 2/17/25 4/20/26 11/25/27 10/26/28
f 3/23/29 1/22/30 9/27/31 12/28/32
f 6/19/33 8/18/34 15/33/35 13/34/36
f 7/21/37 5/24/38 14/35/39 16/36/40
f 31/6/41 32/1/42 34/4/43 35/7/44
f 36/8/45 37/11/46 29/10/47 30/5/48
f 4/20/49 6/19/50 19/30/51 18/29/52
f 6/19/53 13/34/54 19/30/55
f 11/25/56 4/20/57 18/29/58
f 5/24/59 3/23/60 17/32/61 20/31/62
f 3/23/63 12/28/64 17/32/65
f 14/35/66 5/24/67 20/31/68
f 27/69/69 28/9/70 38/12/71 39/68/72
f 40/65/73 33/3/74 25/2/75 26/72/76
f 8/18/77 2/17/78 23/66/79 22/67/80
f 2/17/81 10/26/82 23/66/83
f 15/33/84 8/18/85 22/67/86
f 1/22/87 7/21/88 21/70/89 24/71/90
f 7/21/91 16/36/92 21/70/93
f 9/27/94 1/22/95 24/71/96
f 26/72/97 25/2/98 9/27/99 24/71/100
f 49/41/101 50/42/102 51/43/103 52/44/104
f 16/36/105 28/9/106 27/69/107 21/70/108
f 14/35/109 29/10/110 28/9/111 16/36/112
f 30/5/113 29/10/114 14/35/115 20/31/116
f 17/32/117 31/6/118 30/5/119 20/31/120
f 12/28/121 32/1/122 31/6/123 17/32/124
f 9/27/125 25/2/126 32/1/127 12/28/128
f 34/4/129 33/3/130 10/26/131 11/25/132
f 35/7/133 34/4/134 11/25/135 18/29/136
f 36/8/137 35/7/138 18/29/139 19/30/140
f 13/34/141 37/11/142 36/8/143 19/30/144
f 38/12/145 37/11/146 13/34/147 15/33/148
f 39/68/149 38/12/150 15/33/151 22/67/152
f 10/26/153 33/3/154 40/65/155 23/66/156
f 21/40/157 27/14/158 42/45/159 41/46/160
f 27/14/161 26/13/162 43/47/163 42/45/164
f 26/13/165 24/39/166 44/48/167 43/47/168
f 24/39/169 21/40/170 41/46/171 44/48/172
f 40/16/173 39/15/174 45/49/175 46/50/176
f 39/15/177 22/37/178 47/51/179 45/49/180
f 22/37/181 23/38/182 48/52/183 47/51/184
f 23/38/185 40/16/186 46/50/187 48/52/188
f 41/46/189 42/45/190 50/42/191 49/41/192
f 42/45/193 43/47/194 51/43/195 50/42/196
f 43/47/197 44/48/198 52/44/199 51/43/200
f 44/48/201 41/46/202 49/41/203 52/44/204
f 58/53/205 57/54/206 59/55/207 60/56/208
f 62/57/209 61/58/210 57/54/211 58/53/212
f 45/49/213 47/51/214 55/59/215 53/60/216
f 63/61/217 64/62/218 60/56/219 59/55/220
f 48/52/221 46/50/222 54/63/223 56/64/224
f 53/60/225 55/59/226 59/55/227 57/54/228
f 56/64/229 54/63/230 58/53/231 60/56/232
f 46/50/233 45/49/234 61/58/235 62/57/236
f 45/49/237 53/60/238 57/54/239 61/58/240
f 54/63/241 46/50/242 62/57/243 58/53/244
f 47/51/245 48/52/246 64/62/247 63/61/248
f 48/52/249 56/64/250 60/56/251 64/62/252
f 55/59/253 47/51/254 63/61/255 59/55/256
