# This file uses centimeters as units for non-parametric coordinates.

g default
v -2.823159 1.474779 -8.282917
v -2.804229 1.474779 -8.282917
v -2.823159 2.817937 -8.282917
v -2.804229 2.817937 -8.282917
v -2.823159 2.817937 -9.188271
v -2.804229 2.817937 -9.188271
v -2.823159 1.474779 -9.188271
v -2.804229 1.474779 -9.188271
v -2.829335 2.874337 -9.236604
v -2.790633 2.874336 -9.236604
v -2.829335 1.418379 -9.236604
v -2.790633 1.418380 -9.236604
v -2.829335 2.874337 -8.234584
v -2.790633 2.874336 -8.234584
v -2.790633 1.418380 -8.234584
v -2.829335 1.418379 -8.234584
v -2.790633 2.817937 -8.282917
v -2.790633 1.474779 -8.282917
v -2.790633 1.474779 -9.188271
v -2.790633 2.817937 -9.188271
v -2.829335 1.474779 -9.188271
v -2.829335 1.474779 -8.282917
v -2.829335 2.817937 -8.282917
v -2.829335 2.817937 -9.188271
vt 0.452168 0.991555
vt 0.452168 0.991555
vt 0.452168 0.933406
vt 0.452168 0.933406
vt 0.398812 0.933406
vt 0.398812 0.933406
vt 0.398812 0.991555
vt 0.398812 0.991555
vt 0.517168 0.866048
vt 0.517168 0.866048
vt 0.601734 0.866048
vt 0.601734 0.866048
vt 0.601734 0.505680
vt 0.601734 0.505679
vt 0.517168 0.505680
vt 0.517168 0.505679
vt 0.517304 0.966388
vt 0.517304 0.990337
vt 0.593711 0.966388
vt 0.593711 0.990337
vt 0.517304 0.966388
vt 0.593711 0.966388
vt 0.517304 0.990337
vt 0.593711 0.990337
vt 0.597654 0.852088
vt 0.597654 0.519639
vt 0.521248 0.852088
vt 0.521248 0.519639
vt 0.521248 0.852088
vt 0.597654 0.852088
vt 0.597654 0.519639
vt 0.521248 0.519639
vt 0.508044 0.967935
vt 0.508044 0.990376
vt 0.508044 0.990376
vt 0.508044 0.967935
vt 0.592609 0.990376
vt 0.592609 0.990376
vt 0.592609 0.967935
vt 0.592609 0.967935
vn 0.000000 0.000000 1.000000
vn 0.000000 0.000000 1.000000
vn 0.000000 0.000000 1.000000
vn 0.000000 0.000000 1.000000
vn 0.000000 1.000000 0.000000
vn 0.000000 1.000000 0.000000
vn 0.000000 1.000000 0.000000
vn 0.000000 1.000000 0.000000
vn 0.000000 0.000000 -1.000000
vn 0.000000 0.000000 -1.000000
vn 0.000000 0.000000 -1.000000
vn 0.000000 0.000000 -1.000000
vn 0.000000 -1.000000 0.000000
vn 0.000000 -1.000000 0.000000
vn 0.000000 -1.000000 0.000000
vn 0.000000 -1.000000 0.000000
vn 1.000000 0.000000 0.000000
vn 1.000000 0.000000 0.000000
vn 1.000000 0.000000 0.000000
vn 1.000000 0.000000 0.000000
vn -1.000000 0.000000 0.000000
vn -1.000000 0.000000 0.000000
vn -1.000000 0.000000 0.000000
vn -1.000000 0.000000 0.000000
vn 0.000012 1.000000 0.000000
vn 0.000012 1.000000 0.000000
vn 0.000012 1.000000 0.000000
vn 0.000012 1.000000 0.000000
vn 0.000000 0.000000 -1.000000
vn 0.000000 0.000000 -1.000000
vn 0.000000 0.000000 -1.000000
vn 0.000000 0.000000 -1.000000
vn 0.000006 -1.000000 0.000000
vn 0.000006 -1.000000 0.000000
vn 0.000006 -1.000000 0.000000
vn 0.000006 -1.000000 0.000000
vn 0.000000 0.000000 1.000000
vn 0.000000 0.000000 1.000000
vn 0.000000 0.000000 1.000000
vn 0.000000 0.000000 1.000000
vn 1.000000 0.000000 0.000000
vn 1.000000 0.000000 0.000000
vn 1.000000 0.000000 0.000000
vn 1.000000 0.000000 0.000000
vn 1.000000 0.000001 0.000000
vn 1.000000 0.000001 0.000000
vn 1.000000 0.000001 0.000000
vn 1.000000 0.000001 0.000000
vn 1.000000 0.000000 0.000000
vn 1.000000 0.000000 0.000000
vn 1.000000 0.000000 0.000000
vn 1.000000 0.000000 0.000000
vn 1.000000 -0.000001 0.000000
vn 1.000000 -0.000001 0.000000
vn 1.000000 -0.000001 0.000000
vn 1.000000 -0.000001 0.000000
vn -1.000000 -0.000001 0.000000
vn -1.000000 -0.000001 0.000000
vn -1.000000 -0.000001 0.000000
vn -1.000000 -0.000001 0.000000
vn -1.000000 0.000000 0.000000
vn -1.000000 0.000000 0.000000
vn -1.000000 0.000000 0.000000
vn -1.000000 0.000000 0.000000
vn -1.000000 0.000001 0.000000
vn -1.000000 0.000001 0.000000
vn -1.000000 0.000001 0.000000
vn -1.000000 0.000001 0.000000
vn -1.000000 0.000000 0.000000
vn -1.000000 0.000000 0.000000
vn -1.000000 0.000000 0.000000
vn -1.000000 0.000000 0.000000
vn -0.000003 0.000000 -1.000000
vn -0.000003 0.000000 -1.000000
vn -0.000003 0.000000 -1.000000
vn -0.000003 0.000000 -1.000000
vn -0.000006 1.000000 0.000000
vn -0.000006 1.000000 0.000000
vn -0.000006 1.000000 0.000000
vn -0.000006 1.000000 0.000000
vn 0.000005 0.000000 1.000000
vn 0.000005 0.000000 1.000000
vn 0.000005 0.000000 1.000000
vn 0.000005 0.000000 1.000000
vn -0.000012 -1.000000 0.000000
vn -0.000012 -1.000000 0.000000
vn -0.000012 -1.000000 0.000000
vn -0.000012 -1.000000 0.000000
s off
g window
f 1/1/1 2/2/2 4/3/3 3/4/4
f 3/4/5 4/3/6 6/5/7 5/6/8
f 5/6/9 6/5/10 8/7/11 7/8/12
f 7/8/13 8/7/14 2/2/15 1/1/16
f 2/2/17 8/7/18 6/5/19 4/3/20
f 7/8/21 1/1/22 3/4/23 5/6/24
f 13/34/25 14/35/26 10/37/27 9/38/28
f 9/38/29 10/37/30 12/39/31 11/40/32
f 11/40/33 12/39/34 15/36/35 16/33/36
f 14/35/37 13/34/38 16/33/39 15/36/40
f 14/10/41 15/15/42 18/32/43 17/29/44
f 15/15/45 12/13/46 19/31/47 18/32/48
f 12/13/49 10/11/50 20/30/51 19/31/52
f 10/11/53 14/10/54 17/29/55 20/30/56
f 11/14/57 16/16/58 22/28/59 21/26/60
f 16/16/61 13/9/62 23/27/63 22/28/64
f 13/9/65 9/12/66 24/25/67 23/27/68
f 9/12/69 11/14/70 21/26/71 24/25/72
f 17/18/73 18/17/74 22/21/75 23/23/76
f 18/17/77 19/19/78 21/22/79 22/21/80
f 19/19/81 20/20/82 24/24/83 21/22/84
f 20/20/85 17/18/86 23/23/87 24/24/88
